<svg width="19" height="12" viewBox="0 0 19 12" fill="none" xmlns="http://www.w3.org/2000/svg">
<path d="M1.62646 5.25C1.21225 5.25 0.876465 5.58579 0.876465 6C0.876465 6.41421 1.21225 6.75 1.62646 6.75L1.62646 5.25ZM18.1568 6.53033C18.4497 6.23744 18.4497 5.76256 18.1568 5.46967L13.3838 0.696699C13.0909 0.403806 12.6161 0.403806 12.3232 0.696699C12.0303 0.989592 12.0303 1.46447 12.3232 1.75736L16.5658 6L12.3232 10.2426C12.0303 10.5355 12.0303 11.0104 12.3232 11.3033C12.6161 11.5962 13.0909 11.5962 13.3838 11.3033L18.1568 6.53033ZM1.62646 6.75L17.6265 6.75L17.6265 5.25L1.62646 5.25L1.62646 6.75Z" fill="currentColor"/>
</svg>
