<svg width="24" height="24" viewBox="0 0 24 24" fill="none" xmlns="http://www.w3.org/2000/svg">
<path d="M5.24698 7.0773C5.61191 3.62231 8.52579 1 12 1V1C15.4742 1 18.3881 3.62231 18.753 7.07731L19.1025 10.386C19.157 10.9019 19.1842 11.1599 19.2276 11.4132C19.3558 12.1627 19.5903 12.8901 19.9238 13.5734C20.0366 13.8043 20.1651 14.0297 20.4221 14.4804L21.2941 16.0091C22.0528 17.3394 22.4322 18.0045 22.1431 18.5023C21.854 19 21.0883 19 19.5568 19H4.44319C2.91173 19 2.146 19 1.85689 18.5023C1.56778 18.0045 1.94716 17.3394 2.70592 16.0091L3.57786 14.4804C3.83492 14.0297 3.96345 13.8043 4.07619 13.5734C4.40974 12.8901 4.64417 12.1627 4.77241 11.4132C4.81576 11.1599 4.84301 10.9019 4.8975 10.386L5.24698 7.0773Z" stroke="#7B8D99" stroke-width="2"/>
<path d="M8.22735 19.6616C8.50158 20.6345 9.00979 21.4775 9.68233 22.0752C10.3549 22.6728 11.1588 22.9958 11.984 23C12.8092 23.0041 13.6151 22.6891 14.2915 22.0982C14.9678 21.5073 15.4814 20.6694 15.7619 19.6994" stroke="#7B8D99" stroke-width="2" stroke-linecap="round"/>
</svg>
