<svg width="24" height="24" viewBox="0 0 24 24" fill="none" xmlns="http://www.w3.org/2000/svg">
<path d="M21.7132 6.06859L19.5505 9.31271L14.6873 4.44954L17.9314 2.2868L21.7132 6.06859Z" fill="currentColor" stroke="currentColor" stroke-width="2"/>
<path d="M3.20323 14.8215C3.1907 14.8341 3.1778 14.8469 3.16459 14.86C3.01243 15.0112 2.81981 15.2027 2.68293 15.4445C2.54604 15.6862 2.48097 15.9499 2.42957 16.1582C2.4249 16.1771 2.42035 16.1956 2.41586 16.2135L1.23197 20.9491L2.20211 21.1916L1.23197 20.9491C1.22917 20.9603 1.22624 20.9719 1.22323 20.9839C1.18641 21.1304 1.1354 21.3333 1.11783 21.5129C1.09761 21.7196 1.09093 22.1716 1.45971 22.5403L2.16682 21.8332L1.45971 22.5404C1.82849 22.9091 2.28045 22.9024 2.48714 22.8822C2.66674 22.8647 2.86963 22.8137 3.01612 22.7768C3.02814 22.7738 3.03978 22.7709 3.05099 22.7681L7.78656 21.5842C7.8045 21.5797 7.82295 21.5752 7.84186 21.5705C8.05016 21.5191 8.31383 21.454 8.5556 21.3171C8.79737 21.1802 8.98881 20.9876 9.14007 20.8355C9.1538 20.8216 9.16719 20.8082 9.18027 20.7951L21.0576 8.91776C21.0704 8.90492 21.0833 8.89211 21.0961 8.8793C21.396 8.5795 21.6875 8.28813 21.8955 8.01546C22.13 7.70806 22.3505 7.3101 22.3505 6.79644C22.3505 6.28277 22.13 5.88481 21.8955 5.57742C21.6875 5.30474 21.396 5.01338 21.0961 4.71357C21.0833 4.70077 21.0704 4.68795 21.0576 4.67512L19.3249 2.94246C19.3121 2.92962 19.2993 2.91678 19.2865 2.90397C18.9867 2.60405 18.6953 2.31258 18.4226 2.10454C18.1152 1.87001 17.7173 1.64957 17.2036 1.64957C16.69 1.64957 16.292 1.87001 15.9846 2.10454C15.7119 2.31258 15.4206 2.60406 15.1208 2.90398C15.108 2.91679 15.0951 2.92962 15.0823 2.94246L3.20497 14.8198C3.20439 14.8204 3.20381 14.8209 3.20323 14.8215Z" stroke="currentColor" stroke-width="2"/>
</svg>
