<svg width="32" height="32" viewBox="0 0 32 32" fill="none" xmlns="http://www.w3.org/2000/svg">
<path fill-rule="evenodd" clip-rule="evenodd" d="M14.6454 21.4353C18.4168 21.4353 21.4742 18.3779 21.4742 14.6066C21.4742 10.8352 18.4168 7.77785 14.6454 7.77785C10.874 7.77785 7.81667 10.8352 7.81667 14.6066C7.81667 18.3779 10.874 21.4353 14.6454 21.4353ZM14.6454 23.9185C19.7882 23.9185 23.9572 19.7494 23.9572 14.6066C23.9572 9.46376 19.7882 5.29468 14.6454 5.29468C9.50258 5.29468 5.3335 9.46376 5.3335 14.6066C5.3335 19.7494 9.50258 23.9185 14.6454 23.9185Z" fill="currentColor"/>
<path d="M18.7651 21.1025L20.521 19.3467L25.7886 24.6143C26.2735 25.0992 26.2735 25.8853 25.7886 26.3701C25.3038 26.8551 24.5177 26.8551 24.0327 26.3701L18.7651 21.1025Z" fill="currentColor"/>
</svg>
