<svg width="18" height="16" viewBox="0 0 18 16" fill="none" xmlns="http://www.w3.org/2000/svg">
<path fill-rule="evenodd" clip-rule="evenodd" d="M11.6442 0.150382C13.0501 -0.217067 14.6101 0.0614022 15.9837 1.29074C18.7102 3.70721 18.6078 7.56627 16.0622 10.4759C14.0815 12.8029 12.1203 14.52 9.93155 15.755C9.35266 16.0817 8.64733 16.0817 8.06847 15.755C5.87969 14.52 3.91847 12.8029 1.93774 10.4759C-0.607768 7.56628 -0.710193 3.70724 2.01622 1.29077C3.38983 0.0614126 4.94995 -0.217067 6.35574 0.150382C7.385 0.419421 8.30124 1.02481 9 1.7954C9.69879 1.02481 10.615 0.419421 11.6442 0.150382ZM12.0719 1.80946C11.1731 2.0444 10.3428 2.69738 9.81961 3.52559C9.43845 4.12892 8.56156 4.12892 8.18038 3.52559C7.65713 2.69738 6.82687 2.0444 5.92806 1.80946C5.06696 1.58438 4.09192 1.72561 3.14575 2.57308L3.14221 2.57625C1.26586 4.23812 1.15321 6.9894 3.21834 9.34665L3.2224 9.35128L3.22641 9.3559C5.11513 11.5757 6.92815 13.1468 8.90058 14.2598C8.96251 14.2948 9.03748 14.2948 9.09937 14.2598C11.0719 13.1468 12.8849 11.5757 14.7735 9.3559L14.7776 9.35128L14.7816 9.34665C16.8468 6.9894 16.7342 4.23811 14.8578 2.57624L14.8542 2.57309C13.9081 1.72562 12.933 1.58438 12.0719 1.80946Z" fill="currentColor"/>
</svg>
