<svg width="24" height="24" viewBox="0 0 24 24" fill="none" xmlns="http://www.w3.org/2000/svg">
<path fill-rule="evenodd" clip-rule="evenodd" d="M22.5804 6.46389C23.7429 8.48978 24.2051 10.8424 23.8956 13.1575C23.586 15.4725 22.522 17.6211 20.8682 19.2704C19.2144 20.9198 17.0631 21.9781 14.7472 22.2814C12.4313 22.5847 10.0799 22.1162 8.05715 20.9483C7.57886 20.6722 7.41499 20.0606 7.69113 19.5823C7.96727 19.104 8.57886 18.9401 9.05715 19.2163C10.699 20.1642 12.6076 20.5445 14.4874 20.2983C16.3673 20.0521 18.1135 19.1931 19.4559 17.8543C20.7983 16.5155 21.662 14.7716 21.9132 12.8924C22.1644 11.0132 21.7893 9.10367 20.8457 7.45925C19.9022 5.81483 18.4429 4.52728 16.6938 3.7959C14.9446 3.06451 13.0032 2.93008 11.1699 3.41341C9.3367 3.89674 7.71389 4.97088 6.55271 6.46956C5.44626 7.89761 4.81426 9.687 4.75149 11.5024L6.04635 10.8554C6.54039 10.6085 7.14102 10.8089 7.38788 11.303C7.63475 11.797 7.43438 12.3976 6.94033 12.6445L4.19051 14.0185C3.9091 14.1592 3.57793 14.1592 3.29653 14.0185L0.546698 12.6445C0.0526582 12.3976 -0.147716 11.797 0.0991498 11.303C0.346016 10.8089 0.94664 10.6085 1.44068 10.8554L2.75032 11.5098C2.81202 9.25922 3.58596 7.03316 4.97173 5.24462C6.40228 3.39827 8.40155 2.07495 10.6601 1.4795C12.9186 0.884041 15.3104 1.04966 17.4653 1.95071C19.6202 2.85176 21.418 4.438 22.5804 6.46389ZM14.3746 6.25361C14.3746 5.70133 13.9269 5.25361 13.3746 5.25361C12.8223 5.25361 12.3746 5.70133 12.3746 6.25361L12.3746 13.6152C12.3746 13.9145 12.5087 14.1981 12.74 14.388L15.4881 16.6448C15.9149 16.9953 16.545 16.9335 16.8955 16.5067C17.246 16.0798 17.1842 15.4497 16.7573 15.0992L14.3746 13.1425L14.3746 6.25361Z" fill="currentColor"/>
</svg>
