<svg width="24" height="24" viewBox="0 0 24 24" fill="none" xmlns="http://www.w3.org/2000/svg">
<g clip-path="url(#clip0_746_5108)">
<path d="M2.25537 11.7039C2.25537 9.84265 2.25537 8.91203 2.63161 8.094C3.00785 7.27598 3.71443 6.67034 5.12759 5.45906L6.49841 4.28407C9.05269 2.09469 10.3298 1 11.8511 1C13.3724 1 14.6496 2.09469 17.2038 4.28407L18.5747 5.45906C19.9878 6.67034 20.6944 7.27598 21.0706 8.094C21.4469 8.91203 21.4469 9.84265 21.4469 11.7039V17.5167C21.4469 20.1016 21.4469 21.394 20.6439 22.197C19.8409 23 18.5484 23 15.9636 23H7.73866C5.15381 23 3.86139 23 3.05838 22.197C2.25537 21.394 2.25537 20.1016 2.25537 17.5167V11.7039Z" stroke="currentColor" stroke-width="2"/>
<path d="M15.3766 21.7584V14.5334C15.3766 13.9812 14.9289 13.5334 14.3766 13.5334H9.52246C8.97018 13.5334 8.52246 13.9812 8.52246 14.5334V21.7584" stroke="currentColor" stroke-width="2" stroke-linecap="round" stroke-linejoin="round"/>
</g>
<defs>
<clipPath id="clip0_746_5108">
<rect width="24" height="24" fill="white"/>
</clipPath>
</defs>
</svg>
