<svg width="15" height="15" viewBox="0 0 15 15" fill="none" xmlns="http://www.w3.org/2000/svg">
<path d="M1.34249 4.67476L13.6686 1.09623C13.8161 1.05338 13.9549 1.18607 13.9187 1.33542L10.9298 13.6648C10.8936 13.8141 10.7095 13.8685 10.5979 13.7629L7.44883 10.7831C7.36839 10.707 7.24142 10.7107 7.1656 10.7915L5.6791 12.3739C5.55503 12.5059 5.33333 12.4181 5.33333 12.2369V8.63316C5.33333 8.57898 5.35532 8.52711 5.39425 8.48944L8.74063 5.251C8.90481 5.09212 8.71718 4.82652 8.51257 4.92817L3.88021 7.2294C3.80629 7.26612 3.7174 7.25366 3.65642 7.19803L1.26345 5.01457C1.14807 4.9093 1.19249 4.71831 1.34249 4.67476Z" stroke="white" stroke-width="1.3"/>
</svg>
