<svg width="21" height="16" viewBox="0 0 21 16" fill="none" xmlns="http://www.w3.org/2000/svg">
<path d="M5.45312 11.2244C3.75908 11.9921 2.0965 13.5298 1.26498 14.4262C1.19426 14.5025 1.0654 14.4354 1.08989 14.3344C1.33055 13.3415 1.8034 11.7149 2.48438 10.6863C3.375 9.34096 4.40766 8.10791 6.04688 6.91939C7.50603 5.86142 10.5908 5.06346 12.1992 4.78106C12.2472 4.77263 12.2812 4.73121 12.2812 4.68244V1.21404C12.2812 1.12917 12.3803 1.08288 12.4454 1.13734L19.9083 7.38082C19.9561 7.42079 19.9561 7.49424 19.9083 7.53422L12.4454 13.7777C12.3803 13.8322 12.2812 13.7859 12.2812 13.701V10.2481C12.2812 10.1929 12.2377 10.1481 12.1824 10.1485C10.6489 10.1577 7.31212 10.382 5.45312 11.2244Z" stroke="#252A2E" stroke-width="1.5"/>
</svg>
