<svg width="71" height="51" viewBox="0 0 71 51" fill="none" xmlns="http://www.w3.org/2000/svg">
<path d="M23.124 10.908C23.8493 10.908 24.3707 11.0553 24.688 11.35C25.0053 11.6447 25.164 12.1093 25.164 12.744V38.516C25.164 39.1507 25.0053 39.6153 24.688 39.91C24.3707 40.2047 23.8493 40.352 23.124 40.352C22.4213 40.352 21.9113 40.1933 21.594 39.876C21.2767 39.5813 21.118 39.128 21.118 38.516V26.854H6.77V38.516C6.77 39.128 6.6 39.5813 6.26 39.876C5.94267 40.1933 5.43267 40.352 4.73 40.352C4.02734 40.352 3.51734 40.1933 3.2 39.876C2.88267 39.5813 2.724 39.128 2.724 38.516V12.744C2.724 12.1093 2.88267 11.6447 3.2 11.35C3.51734 11.0553 4.02734 10.908 4.73 10.908C5.43267 10.908 5.94267 11.0553 6.26 11.35C6.6 11.6447 6.77 12.1093 6.77 12.744V23.046H21.118V12.744C21.118 12.1093 21.2767 11.6447 21.594 11.35C21.9113 11.0553 22.4213 10.908 23.124 10.908ZM37.7714 40.386C35.6634 40.386 33.8954 39.978 32.4674 39.162C31.0394 38.346 29.974 37.2693 29.2714 35.932C28.5914 34.572 28.2514 33.0987 28.2514 31.512V26.99C28.2514 25.4033 28.5914 23.9413 29.2714 22.604C29.974 21.244 31.0394 20.1673 32.4674 19.374C33.8954 18.558 35.6634 18.15 37.7714 18.15C39.8794 18.15 41.6474 18.558 43.0754 19.374C44.526 20.1673 45.5914 21.244 46.2714 22.604C46.974 23.9413 47.3254 25.4033 47.3254 26.99V31.512C47.3254 33.0987 46.974 34.572 46.2714 35.932C45.5914 37.2693 44.526 38.346 43.0754 39.162C41.6474 39.978 39.8794 40.386 37.7714 40.386ZM37.7714 36.51C39.6074 36.51 40.99 35.9773 41.9194 34.912C42.8714 33.824 43.3474 32.2373 43.3474 30.152V28.35C43.3474 26.2647 42.8714 24.6893 41.9194 23.624C40.99 22.5587 39.6074 22.026 37.7714 22.026C35.958 22.026 34.5867 22.5587 33.6574 23.624C32.728 24.6893 32.2634 26.2647 32.2634 28.35V30.152C32.2634 32.2373 32.728 33.824 33.6574 34.912C34.5867 35.9773 35.958 36.51 37.7714 36.51ZM52.4126 16.008C51.7099 16.008 51.1999 15.8607 50.8826 15.566C50.5653 15.2487 50.4066 14.7727 50.4066 14.138V13.152C50.4066 12.4947 50.5653 12.0187 50.8826 11.724C51.1999 11.4067 51.7099 11.248 52.4126 11.248C53.1153 11.248 53.6253 11.4067 53.9426 11.724C54.2599 12.0187 54.4186 12.4947 54.4186 13.152V14.138C54.4186 14.7727 54.2599 15.2487 53.9426 15.566C53.6253 15.8607 53.1153 16.008 52.4126 16.008ZM52.4126 40.352C51.7326 40.352 51.2226 40.1933 50.8826 39.876C50.5653 39.5813 50.4066 39.128 50.4066 38.516V19.986C50.4066 19.3513 50.5653 18.8867 50.8826 18.592C51.1999 18.2747 51.7099 18.116 52.4126 18.116C53.1153 18.116 53.6253 18.2747 53.9426 18.592C54.2599 18.8867 54.4186 19.3513 54.4186 19.986V38.516C54.4186 39.128 54.2486 39.5813 53.9086 39.876C53.5913 40.1933 53.0926 40.352 52.4126 40.352ZM68.1822 36.17C69.3836 36.17 69.9842 36.8047 69.9842 38.074C69.9842 38.7313 69.8369 39.2073 69.5422 39.502C69.2476 39.7967 68.7942 39.944 68.1822 39.944H66.2442C64.2042 39.944 62.6402 39.4567 61.5522 38.482C60.4642 37.53 59.9202 36.1247 59.9202 34.266V22.23H58.4922C57.9029 22.23 57.4722 22.0827 57.2002 21.788C56.9509 21.4933 56.8262 21.006 56.8262 20.326C56.8262 19.6687 56.9509 19.1927 57.2002 18.898C57.4722 18.6033 57.9029 18.456 58.4922 18.456H59.9202V15.396C59.9202 14.784 60.0789 14.3307 60.3962 14.036C60.7136 13.7187 61.2236 13.56 61.9262 13.56C62.6289 13.56 63.1389 13.7187 63.4562 14.036C63.7736 14.3307 63.9322 14.784 63.9322 15.396V18.456H67.8422C68.4316 18.456 68.8509 18.6033 69.1002 18.898C69.3722 19.1927 69.5082 19.6687 69.5082 20.326C69.5082 21.006 69.3722 21.4933 69.1002 21.788C68.8509 22.0827 68.4316 22.23 67.8422 22.23H63.9322V34.13C63.9322 34.8327 64.1476 35.354 64.5782 35.694C65.0089 36.0113 65.5642 36.17 66.2442 36.17H68.1822Z" fill="url(#paint0_linear_71_728)"/>
<rect x="50" y="8" width="6" height="8" fill="#F8F8F8"/>
<path d="M52.7236 6.01367C52.8006 6.48956 53.006 7.64711 53.2627 8.61174C53.3012 8.74036 53.3525 8.95901 53.5065 9.19052C53.8145 9.67927 54.2766 9.89792 54.5204 10.0137C54.7001 10.0908 55.0466 10.168 55.7397 10.3095C56.1889 10.3995 56.4969 10.451 57.1001 10.5924C57.2413 10.631 57.3696 10.6568 57.4466 10.6696" stroke="#279AF2" stroke-width="2" stroke-miterlimit="10" stroke-linecap="round"/>
<path d="M48 10.6559C48.4749 10.5788 49.6428 10.3601 50.6053 10.1158C50.7337 10.0772 50.9519 10.0257 51.1829 9.88424C51.6834 9.57556 51.9016 9.1254 52.0043 8.89389C52.0813 8.71383 52.1583 8.37942 52.2995 7.69775C52.3893 7.26045 52.4406 6.95177 52.5818 6.37299C52.6203 6.23151 52.6717 6.07717 52.6845 6" stroke="#279AF2" stroke-width="2" stroke-miterlimit="10" stroke-linecap="round"/>
<path d="M52.6717 15.4159C52.5947 14.94 52.3636 13.731 52.1198 12.7535C52.0813 12.6249 52.0299 12.4063 51.8888 12.1747C51.5807 11.6731 51.1316 11.4545 50.9005 11.3516C50.7209 11.2744 50.3872 11.1973 49.707 11.0558C49.2706 10.9657 48.9626 10.9143 48.385 10.7728C48.2439 10.7342 48.0898 10.6828 48 10.6699" stroke="#279AF2" stroke-width="2" stroke-miterlimit="10" stroke-linecap="round"/>
<path d="M57.4332 10.6816C56.9584 10.7588 55.7776 11.0032 54.8151 11.2476C54.6867 11.2861 54.4685 11.3376 54.2375 11.4791C53.737 11.7877 53.5188 12.2379 53.4161 12.4694C53.3391 12.6495 53.2621 12.9839 53.1209 13.6656C53.0311 14.1029 52.9541 14.3987 52.8129 14.9775C52.7744 15.1189 52.7102 15.3376 52.6846 15.4148" stroke="#279AF2" stroke-width="2" stroke-miterlimit="10" stroke-linecap="round"/>
<rect x="51.5" y="9.5" width="2" height="2" fill="#279AF2" stroke="#279AF2"/>
<defs>
<linearGradient id="paint0_linear_71_728" x1="-28" y1="33.5" x2="63" y2="19" gradientUnits="userSpaceOnUse">
<stop stop-color="#39434A"/>
<stop offset="1" stop-color="#279AF2"/>
</linearGradient>
</defs>
</svg>
