<svg width="24" height="22" viewBox="0 0 24 22" fill="none" xmlns="http://www.w3.org/2000/svg">
<g id="Group">
<path id="Vector" d="M13.538 1.31485L23.7617 19.0222C23.9176 19.2922 23.9997 19.5985 23.9997 19.9103C23.9997 20.222 23.9176 20.5283 23.7617 20.7983C23.6058 21.0683 23.3816 21.2926 23.1116 21.4485C22.8416 21.6044 22.5353 21.6864 22.2235 21.6864H1.77613C1.46435 21.6864 1.15807 21.6044 0.888061 21.4485C0.618053 21.2926 0.393839 21.0683 0.237952 20.7983C0.0820646 20.5283 -1.98014e-06 20.222 0 19.9103C1.98021e-06 19.5985 0.0820725 19.2922 0.237963 19.0222L10.4617 1.31485C11.1449 0.130728 12.8536 0.130728 13.538 1.31485ZM11.9998 3.38706L2.80158 19.3182H21.1981L11.9998 3.38706ZM11.9998 15.349C12.3139 15.349 12.6151 15.4738 12.8371 15.6959C13.0592 15.9179 13.1839 16.2191 13.1839 16.5332C13.1839 16.8472 13.0592 17.1484 12.8371 17.3705C12.6151 17.5925 12.3139 17.7173 11.9998 17.7173C11.6858 17.7173 11.3846 17.5925 11.1625 17.3705C10.9405 17.1484 10.8157 16.8472 10.8157 16.5332C10.8157 16.2191 10.9405 15.9179 11.1625 15.6959C11.3846 15.4738 11.6858 15.349 11.9998 15.349ZM11.9998 7.0602C12.3139 7.0602 12.6151 7.18495 12.8371 7.40702C13.0592 7.62908 13.1839 7.93027 13.1839 8.24432V12.9808C13.1839 13.2948 13.0592 13.596 12.8371 13.8181C12.6151 14.0402 12.3139 14.1649 11.9998 14.1649C11.6858 14.1649 11.3846 14.0402 11.1625 13.8181C10.9405 13.596 10.8157 13.2948 10.8157 12.9808V8.24432C10.8157 7.93027 10.9405 7.62908 11.1625 7.40702C11.3846 7.18495 11.6858 7.0602 11.9998 7.0602Z" fill="currentColor"/>
</g>
</svg>
