<svg width="18" height="18" viewBox="0 0 18 18" fill="none" xmlns="http://www.w3.org/2000/svg">
<path fill-rule="evenodd" clip-rule="evenodd" d="M7.28418 7.203C7.15178 7.14145 7.00031 7.2377 7 7.38367V9.99988H5V7.38367C5.00031 5.7745 6.67155 4.71027 8.12988 5.3905L11.9814 7.18738C13.5201 7.90565 13.5201 10.0941 11.9814 10.8124L8.12988 12.6093C8.08676 12.6294 8.04345 12.648 8 12.6651V10.4628L11.1357 8.99988L7.28418 7.203Z" fill="#252A2E"/>
<path d="M9 0C13.9706 0 18 4.02944 18 9C18 13.9706 13.9706 18 9 18C8.66189 18 8.32843 17.9787 8 17.9424V15.9268C8.32671 15.9735 8.66036 16 9 16C12.866 16 16 12.866 16 9C16 5.13401 12.866 2 9 2C5.13401 2 2 5.13401 2 9C2 9.33959 2.02553 9.67334 2.07227 10H0.0566406C0.0203316 9.67161 0 9.33807 0 9C0 4.02944 4.02944 0 9 0Z" fill="#252A2E"/>
<path d="M1 17L6 12M6 12H0M6 12V18" stroke="#252A2E" stroke-width="2"/>
</svg>
