<svg width="16" height="16" viewBox="0 0 16 16" fill="none" xmlns="http://www.w3.org/2000/svg">
<circle cx="8" cy="8" r="7.5" fill="#DCE4E8" stroke="#A3B5C0"/>
<path fill-rule="evenodd" clip-rule="evenodd" d="M4.39935 10.3989C4.0674 10.7308 4.0674 11.269 4.39935 11.6009C4.7313 11.9329 5.26949 11.9329 5.60143 11.6009L8.00039 9.20198L10.3993 11.6009C10.7313 11.9329 11.2695 11.9329 11.6014 11.6009C11.9334 11.269 11.9334 10.7308 11.6014 10.3989L9.20247 7.9999L11.6014 5.60094C11.9334 5.269 11.9334 4.73081 11.6014 4.39886C11.2695 4.06692 10.7313 4.06692 10.3994 4.39886L8.00039 6.79782L5.60143 4.39886C5.26949 4.06692 4.7313 4.06692 4.39935 4.39886C4.0674 4.73081 4.0674 5.269 4.39935 5.60094L6.79831 7.9999L4.39935 10.3989Z" fill="#252A2E"/>
</svg>
