<svg width="24" height="24" viewBox="0 0 24 24" fill="none" xmlns="http://www.w3.org/2000/svg">
<g id="Group">
<path id="Vector" d="M12 0C18.6276 0 24 5.3724 24 12C24 18.6276 18.6276 24 12 24C5.3724 24 0 18.6276 0 12C0 5.3724 5.3724 0 12 0ZM12 2.4C9.45392 2.4 7.01212 3.41143 5.21178 5.21178C3.41143 7.01212 2.4 9.45392 2.4 12C2.4 14.5461 3.41143 16.9879 5.21178 18.7882C7.01212 20.5886 9.45392 21.6 12 21.6C14.5461 21.6 16.9879 20.5886 18.7882 18.7882C20.5886 16.9879 21.6 14.5461 21.6 12C21.6 9.45392 20.5886 7.01212 18.7882 5.21178C16.9879 3.41143 14.5461 2.4 12 2.4ZM12 16.8C12.3183 16.8 12.6235 16.9264 12.8485 17.1515C13.0736 17.3765 13.2 17.6817 13.2 18C13.2 18.3183 13.0736 18.6235 12.8485 18.8485C12.6235 19.0736 12.3183 19.2 12 19.2C11.6817 19.2 11.3765 19.0736 11.1515 18.8485C10.9264 18.6235 10.8 18.3183 10.8 18C10.8 17.6817 10.9264 17.3765 11.1515 17.1515C11.3765 16.9264 11.6817 16.8 12 16.8ZM12 5.4C13.0107 5.40003 13.9899 5.75203 14.7693 6.39552C15.5488 7.03902 16.0798 7.93384 16.2712 8.92629C16.4626 9.91874 16.3024 10.9469 15.8181 11.8341C15.3339 12.7212 14.5558 13.4121 13.6176 13.788C13.4786 13.8391 13.3534 13.9217 13.2516 14.0292C13.1988 14.0892 13.1904 14.166 13.1916 14.2452L13.2 14.4C13.1997 14.7059 13.0825 15 12.8726 15.2224C12.6626 15.4448 12.3757 15.5787 12.0703 15.5966C11.765 15.6145 11.4643 15.5152 11.2298 15.3189C10.9953 15.1226 10.8445 14.8441 10.8084 14.5404L10.8 14.4V14.1C10.8 12.7164 11.916 11.886 12.7248 11.5608C13.054 11.4294 13.3411 11.2107 13.5554 10.9284C13.7697 10.646 13.9031 10.3107 13.9411 9.95827C13.9792 9.60587 13.9205 9.24975 13.7715 8.92817C13.6224 8.60659 13.3886 8.33168 13.095 8.13297C12.8015 7.93427 12.4594 7.81927 12.1055 7.80032C11.7515 7.78138 11.3991 7.85921 11.0861 8.02545C10.773 8.19169 10.5112 8.44006 10.3286 8.7439C10.1461 9.04773 10.0498 9.39555 10.05 9.75C10.05 10.0683 9.92357 10.3735 9.69853 10.5985C9.47348 10.8236 9.16826 10.95 8.85 10.95C8.53174 10.95 8.22652 10.8236 8.00147 10.5985C7.77643 10.3735 7.65 10.0683 7.65 9.75C7.65 8.59631 8.1083 7.48987 8.92409 6.67409C9.73987 5.8583 10.8463 5.4 12 5.4Z" fill="#CDD5DB"/>
</g>
</svg>
