<svg width="24" height="24" viewBox="0 0 24 24" fill="none" xmlns="http://www.w3.org/2000/svg">
<path d="M1 13.2222V9C1 5.22876 1 3.34315 2.17157 2.17157C3.34315 1 5.22876 1 9 1H15C18.7712 1 20.6569 1 21.8284 2.17157C23 3.34315 23 5.22876 23 9V15C23 18.7712 23 20.6569 21.8284 21.8284C20.6569 23 18.7712 23 15 23H12" stroke="#252A2E" stroke-width="2" stroke-linejoin="round"/>
<path fill-rule="evenodd" clip-rule="evenodd" d="M21.0002 14.6966L20.1015 13.7978L20.0105 13.7067C19.6161 13.3115 19.2828 12.9775 18.9367 12.7777C17.7027 12.0656 16.1381 12.3195 15.1927 13.3853C14.9275 13.6843 14.7169 14.1065 14.4678 14.6062L14.4102 14.7214C14.3237 14.8944 14.2728 14.9959 14.2326 15.0683L14.2228 15.0859L14.2089 15.0712C14.1524 15.0107 14.0784 14.9246 13.9525 14.7778L7.8706 7.68223C7.51118 7.26291 6.87988 7.21435 6.46055 7.57377C6.04123 7.93319 5.99267 8.56449 6.35209 8.98382L12.434 16.0793L12.4458 16.0931C12.5558 16.2215 12.6578 16.3406 12.7469 16.4359C12.8385 16.5341 12.959 16.6544 13.1117 16.7566C13.936 17.308 15.0399 17.1721 15.7058 16.4373C15.8293 16.3011 15.9169 16.1552 15.982 16.0377C16.0452 15.9236 16.1154 15.7833 16.1909 15.6322L16.1909 15.6321L16.1991 15.6158C16.5392 14.9356 16.6247 14.7849 16.6889 14.7124C17.0041 14.3572 17.5256 14.2725 17.9369 14.5099C18.0208 14.5583 18.1495 14.6743 18.6873 15.2121L20.9809 17.5057C20.9991 16.8205 21.0002 16.0014 21.0002 14.9997V14.6966Z" fill="#252A2E"/>
<circle cx="17.5" cy="6.5" r="1.5" fill="#252A2E" stroke="#252A2E" stroke-width="2" stroke-linecap="round"/>
<path d="M7 17V16C7.55228 16 8 16.4477 8 17H7ZM1.6247 22.5809C1.19343 22.9259 0.564141 22.856 0.219131 22.4247C-0.125878 21.9934 -0.0559568 21.3641 0.375305 21.0191L1.6247 22.5809ZM6 23V17H8V23H6ZM7 18H1V16H7V18ZM7.6247 17.7809L1.6247 22.5809L0.375305 21.0191L6.3753 16.2191L7.6247 17.7809Z" fill="#252A2E"/>
</svg>
