<svg width="24" height="24" viewBox="0 0 24 24" fill="none" xmlns="http://www.w3.org/2000/svg">
<g id="reset" clip-path="url(#clip0_116_688)">
<path id="Union" fill-rule="evenodd" clip-rule="evenodd" d="M14.8 1.60006C15.1314 1.15823 15.0418 0.53143 14.6 0.200059C14.1582 -0.131312 13.5314 -0.0417689 13.2 0.400059L10.2 4.40006L9.75 5.00006L10.2 5.60006L13.2 9.60006C13.5314 10.0419 14.1582 10.1314 14.6 9.80006C15.0418 9.46869 15.1314 8.84189 14.8 8.40006L13.0521 6.06953C14.4747 6.25826 15.8274 6.82735 16.9631 7.72567C18.3759 8.84327 19.3703 10.405 19.785 12.1581C20.1998 13.9111 20.0108 15.7529 19.2485 17.3851C18.4863 19.0174 17.1954 20.3445 15.585 21.1518C13.9745 21.9591 12.1387 22.1992 10.3749 21.8332C8.61096 21.4673 7.02221 20.5167 5.86582 19.1354C4.70943 17.7541 4.0531 16.0229 4.00309 14.2222C3.95307 12.4214 4.51231 10.6565 5.59025 9.21309C5.92072 8.77059 5.8299 8.14397 5.3874 7.8135C4.9449 7.48303 4.31828 7.57385 3.98781 8.01635C2.64038 9.82055 1.94134 12.0267 2.00386 14.2777C2.06637 16.5286 2.88679 18.6926 4.33227 20.4192L5.09904 19.7773L4.33227 20.4192C5.77776 22.1459 7.7637 23.3341 9.96857 23.7915C12.1734 24.249 14.4682 23.9489 16.4812 22.9398C18.4943 21.9307 20.1079 20.2717 21.0607 18.2314C22.0135 16.1911 22.2498 13.8889 21.7313 11.6976C21.2128 9.50626 19.9699 7.55407 18.2038 6.15707C16.6914 4.9607 14.871 4.23148 12.965 4.04672L14.8 1.60006Z" fill="black"/>
</g>
<defs>
<clipPath id="clip0_116_688">
<rect width="24" height="24" fill="white"/>
</clipPath>
</defs>
</svg>
