<svg width="389" height="391" viewBox="0 0 389 391" fill="none" xmlns="http://www.w3.org/2000/svg">
<path fill-rule="evenodd" clip-rule="evenodd" d="M98.1529 183.804C98.1529 106.352 110.791 100.315 119.898 100.229V100.229L120 100.229L120.102 100.229V100.229C129.209 100.315 141.847 106.352 141.847 183.804C141.847 215.57 172.712 220.096 199.826 224.072C221.063 227.186 240 229.963 240 245.229C240 260.494 221.063 263.271 199.826 266.386C172.712 270.361 141.847 274.887 141.847 306.653C141.847 384.105 129.209 390.142 120.102 390.228V390.229C120.068 390.229 120.034 390.228 120 390.228C119.966 390.228 119.932 390.229 119.898 390.229V390.228C110.792 390.142 98.1529 384.105 98.1529 306.653C98.1529 274.887 67.2882 270.361 40.1744 266.386C18.9366 263.271 0 260.494 0 245.229C0 229.963 18.9366 227.186 40.1744 224.072C67.2882 220.096 98.1529 215.57 98.1529 183.804Z" fill="currentColor"/>
<path fill-rule="evenodd" clip-rule="evenodd" d="M290.298 58.1543C290.298 4.2609 299.092 0.0601959 305.429 0.000659953V0L305.5 0.000163075L305.571 0V0.000659953C311.908 0.0601959 320.702 4.2609 320.702 58.1543C320.702 80.2583 342.179 83.4075 361.045 86.1741C375.823 88.3411 389 90.2733 389 100.896C389 111.518 375.823 113.451 361.045 115.618C342.179 118.384 320.702 121.533 320.702 143.637C320.702 197.531 311.908 201.732 305.571 201.791V201.792C305.547 201.792 305.524 201.792 305.5 201.792C305.476 201.792 305.453 201.792 305.429 201.792V201.791C299.092 201.732 290.298 197.531 290.298 143.637C290.298 121.533 268.821 118.384 249.955 115.618C235.177 113.451 222 111.518 222 100.896M222 100.896C222 90.2733 235.177 88.3411 249.955 86.1741C268.821 83.4075 290.298 80.2583 290.298 58.1543" fill="currentColor"/>
<path fill-rule="evenodd" clip-rule="evenodd" d="M336.112 313.836C336.112 285.259 340.775 283.032 344.135 283V283L344.172 283L344.21 283V283C347.57 283.032 352.233 285.259 352.233 313.836C352.233 325.557 363.621 327.227 373.625 328.694C381.461 329.843 388.448 330.867 388.448 336.5C388.448 342.133 381.461 343.157 373.625 344.306C363.621 345.773 352.233 347.443 352.233 359.164C352.233 387.741 347.57 389.968 344.21 390V390C344.197 390 344.185 390 344.172 390C344.16 390 344.147 390 344.135 390V390C340.775 389.968 336.112 387.741 336.112 359.164C336.112 347.443 324.724 345.773 314.719 344.306C306.883 343.157 299.897 342.133 299.896 336.5M299.896 336.5C299.897 330.867 306.883 329.843 314.719 328.694C324.724 327.227 336.112 325.557 336.112 313.836" fill="currentColor"/>
</svg>
