<svg width="24" height="24" viewBox="0 0 24 24" fill="none" xmlns="http://www.w3.org/2000/svg">
<path fill-rule="evenodd" clip-rule="evenodd" d="M12.0006 0.608154C9.32428 0.608154 7.02214 2.2057 5.99373 4.4971C5.86458 4.78487 5.77487 4.98443 5.7015 5.12936C5.66547 5.20054 5.63773 5.24974 5.6158 5.28409C5.59609 5.31496 5.58577 5.32633 5.58478 5.32742L5.58485 5.32736C5.53829 5.37371 5.51805 5.38856 5.50608 5.39631C5.4941 5.40406 5.47227 5.41645 5.41092 5.43994C5.39519 5.44597 5.3521 5.45848 5.23083 5.46561C5.10842 5.47282 4.94727 5.47302 4.70334 5.47302C2.4121 5.47302 0.554688 7.33043 0.554688 9.62167C0.554688 11.9129 2.4121 13.7703 4.70334 13.7703H6.23977L7.23977 12.7703H4.70334C2.96439 12.7703 1.55469 11.3606 1.55469 9.62167C1.55469 7.88272 2.96439 6.47302 4.70334 6.47302H4.71784C4.94337 6.47302 5.13422 6.47303 5.28957 6.46389C5.44939 6.45448 5.61161 6.43392 5.76859 6.37379C5.86303 6.33762 5.95601 6.29628 6.04946 6.23579C6.14291 6.1753 6.2187 6.1074 6.29037 6.03605C6.41696 5.91002 6.51135 5.74369 6.5937 5.58101C6.67893 5.41265 6.77816 5.19153 6.90067 4.91857L6.90067 4.91856L6.90606 4.90657C7.7791 2.96133 9.73238 1.60815 12.0006 1.60815C14.2689 1.60815 16.2222 2.96133 17.0952 4.90657L17.1007 4.91873C17.2231 5.19162 17.3224 5.41268 17.4076 5.58101C17.4899 5.74369 17.5843 5.91002 17.7109 6.03605C17.7826 6.1074 17.8584 6.1753 17.9518 6.23579C18.0453 6.29628 18.1382 6.33762 18.2327 6.37379C18.3897 6.43392 18.5519 6.45448 18.7117 6.46389C18.867 6.47303 19.0579 6.47302 19.2834 6.47302H19.2979C21.0369 6.47302 22.4466 7.88272 22.4466 9.62167C22.4466 11.3606 21.0369 12.7703 19.2979 12.7703H16.7615L17.7615 13.7703H19.2979C21.5892 13.7703 23.4466 11.9129 23.4466 9.62167C23.4466 7.33043 21.5892 5.47302 19.2979 5.47302C19.054 5.47302 18.8928 5.47282 18.7704 5.46561C18.6492 5.45848 18.6061 5.44597 18.5903 5.43994C18.529 5.41645 18.5072 5.40406 18.4952 5.39631C18.4832 5.38856 18.463 5.37371 18.4164 5.32736L18.4165 5.32741C18.4155 5.32629 18.4051 5.3149 18.3855 5.28409C18.3635 5.24973 18.3358 5.20054 18.2998 5.12936C18.2264 4.98443 18.1367 4.78487 18.0075 4.49711C16.9791 2.2057 14.677 0.608154 12.0006 0.608154Z" fill="#252A2E"/>
<path d="M5.99373 4.4971L5.53757 4.29237L5.53757 4.29237L5.99373 4.4971ZM5.7015 5.12936L6.1476 5.35519L6.1476 5.35518L5.7015 5.12936ZM5.6158 5.28409L6.03721 5.55318L6.03721 5.55318L5.6158 5.28409ZM5.58478 5.32742L5.21442 4.99151L5.90702 5.70973L5.58478 5.32742ZM5.58485 5.32736L5.93761 5.6817L5.26261 4.94505L5.58485 5.32736ZM5.41092 5.43994L5.23209 4.97302L5.23208 4.97302L5.41092 5.43994ZM5.23083 5.46561L5.2602 5.96475H5.2602L5.23083 5.46561ZM6.23977 13.7703V14.2703H6.44688L6.59333 14.1239L6.23977 13.7703ZM7.23977 12.7703L7.59333 13.1239L8.44688 12.2703H7.23977V12.7703ZM4.71784 6.47302L4.71785 5.97302H4.71784V6.47302ZM5.28957 6.46389L5.31894 6.96302L5.28957 6.46389ZM5.76859 6.37379L5.94743 6.84072L5.94743 6.84071L5.76859 6.37379ZM6.04946 6.23579L5.77777 5.81605L5.77777 5.81605L6.04946 6.23579ZM6.29037 6.03605L6.64313 6.39039L6.29037 6.03605ZM6.5937 5.58101L7.0398 5.80683L7.0398 5.80683L6.5937 5.58101ZM6.90067 4.91857L7.3569 5.12333L7.36024 5.11553L6.90067 4.91857ZM6.90067 4.91856L6.44445 4.7138L6.4411 4.7216L6.90067 4.91856ZM6.90606 4.90657L7.36222 5.1113L7.36222 5.1113L6.90606 4.90657ZM17.0952 4.90657L17.5514 4.70184L17.5514 4.70184L17.0952 4.90657ZM17.1007 4.91873L16.6445 5.12346V5.12346L17.1007 4.91873ZM17.4076 5.58101L17.8537 5.35518V5.35518L17.4076 5.58101ZM17.7109 6.03605L17.3581 6.39039L17.3581 6.39039L17.7109 6.03605ZM17.9518 6.23579L18.2235 5.81605L18.2235 5.81605L17.9518 6.23579ZM18.2327 6.37379L18.0538 6.84072L18.0538 6.84072L18.2327 6.37379ZM18.7117 6.46389L18.6823 6.96302L18.7117 6.46389ZM19.2834 6.47302V5.97302H19.2834L19.2834 6.47302ZM16.7615 12.7703V12.2703H15.5544L16.4079 13.1239L16.7615 12.7703ZM17.7615 13.7703L17.4079 14.1239L17.5544 14.2703H17.7615V13.7703ZM18.7704 5.46561L18.7411 5.96475L18.7704 5.46561ZM18.5903 5.43994L18.7692 4.97302L18.7692 4.97302L18.5903 5.43994ZM18.4952 5.39631L18.2235 5.81604L18.2235 5.81606L18.4952 5.39631ZM18.4164 5.32736L18.7377 4.94427L18.0637 5.6817L18.4164 5.32736ZM18.4165 5.32741L18.0952 5.71051L18.7873 4.99205L18.4165 5.32741ZM18.3855 5.28409L18.8069 5.015L18.8069 5.015L18.3855 5.28409ZM18.2998 5.12936L17.8537 5.35518L17.8537 5.35519L18.2998 5.12936ZM18.0075 4.49711L17.5514 4.70184V4.70184L18.0075 4.49711ZM6.44989 4.70184C7.40065 2.58344 9.52841 1.10815 12.0006 1.10815V0.108154C9.12016 0.108154 6.64362 1.82795 5.53757 4.29237L6.44989 4.70184ZM6.1476 5.35518C6.22753 5.19729 6.32287 4.98487 6.44989 4.70184L5.53757 4.29237C5.40629 4.58488 5.32221 4.77157 5.2554 4.90354L6.1476 5.35518ZM6.03721 5.55318C6.07155 5.49941 6.10767 5.43407 6.1476 5.35519L5.25541 4.90353C5.22327 4.96702 5.20392 5.00006 5.19438 5.015L6.03721 5.55318ZM5.95514 5.66333C5.97732 5.63887 6.00438 5.6046 6.03721 5.55318L5.19438 5.015C5.19079 5.02063 5.19074 5.02027 5.19435 5.01548C5.19619 5.01304 5.19898 5.00946 5.20274 5.00494C5.20463 5.00267 5.2067 5.00023 5.20896 4.99765C5.21009 4.99636 5.21119 4.9951 5.21227 4.9939C5.2128 4.9933 5.21329 4.99276 5.21371 4.9923C5.21412 4.99185 5.21445 4.99148 5.21442 4.99151L5.95514 5.66333ZM5.26261 4.94505L5.26254 4.94511L5.90702 5.70973L5.90708 5.70968L5.26261 4.94505ZM5.77777 5.81605C5.8307 5.78179 5.87879 5.74027 5.93761 5.6817L5.23208 4.97302C5.22376 4.98131 5.21786 4.98694 5.21401 4.99053C5.21014 4.99412 5.20877 4.99525 5.2095 4.99463C5.21034 4.99393 5.21342 4.99136 5.21843 4.98763C5.22094 4.98577 5.22367 4.9838 5.22658 4.98179C5.22952 4.97975 5.23219 4.97799 5.23438 4.97656L5.77777 5.81605ZM5.58976 5.90687C5.66727 5.87718 5.72484 5.85031 5.77777 5.81605L5.23438 4.97656C5.23658 4.97514 5.23928 4.97344 5.24234 4.97159C5.24538 4.96975 5.24828 4.96806 5.25101 4.96654C5.25646 4.9635 5.26007 4.96174 5.26105 4.96127C5.26191 4.96085 5.26032 4.96164 5.25546 4.96369C5.25061 4.96574 5.24306 4.96882 5.23209 4.97302L5.58976 5.90687ZM5.2602 5.96475C5.39982 5.95654 5.5029 5.94013 5.58976 5.90687L5.23208 4.97302C5.26167 4.96169 5.27993 4.95887 5.27614 4.95952C5.27137 4.96034 5.24948 4.96365 5.20147 4.96648L5.2602 5.96475ZM4.70334 5.97302C4.94103 5.97302 5.11961 5.97302 5.2602 5.96475L5.20147 4.96648C5.09723 4.97261 4.95352 4.97302 4.70334 4.97302V5.97302ZM1.05469 9.62167C1.05469 7.60658 2.68824 5.97302 4.70334 5.97302V4.97302C2.13596 4.97302 0.0546875 7.05429 0.0546875 9.62167H1.05469ZM4.70334 13.2703C2.68824 13.2703 1.05469 11.6368 1.05469 9.62167H0.0546875C0.0546875 12.189 2.13596 14.2703 4.70334 14.2703V13.2703ZM6.23977 13.2703H4.70334V14.2703H6.23977V13.2703ZM6.88622 12.4168L5.88622 13.4168L6.59333 14.1239L7.59333 13.1239L6.88622 12.4168ZM4.70334 13.2703H7.23977V12.2703H4.70334V13.2703ZM1.05469 9.62167C1.05469 11.6368 2.68824 13.2703 4.70334 13.2703V12.2703C3.24053 12.2703 2.05469 11.0845 2.05469 9.62167H1.05469ZM4.70334 5.97302C2.68824 5.97302 1.05469 7.60657 1.05469 9.62167H2.05469C2.05469 8.15886 3.24053 6.97302 4.70334 6.97302V5.97302ZM4.71784 5.97302H4.70334V6.97302H4.71784V5.97302ZM5.2602 5.96475C5.12279 5.97283 4.94863 5.97302 4.71785 5.97302L4.71783 6.97302C4.93812 6.97302 5.14565 6.97322 5.31894 6.96302L5.2602 5.96475ZM5.58976 5.90687C5.50322 5.94001 5.40042 5.9565 5.2602 5.96475L5.31894 6.96302C5.49835 6.95247 5.71999 6.92782 5.94743 6.84072L5.58976 5.90687ZM5.77777 5.81605C5.72499 5.85021 5.66753 5.87708 5.58976 5.90687L5.94743 6.84071C6.05853 6.79816 6.18703 6.74235 6.32116 6.65553L5.77777 5.81605ZM5.93761 5.68171C5.87859 5.74047 5.83055 5.78188 5.77777 5.81605L6.32116 6.65553C6.45528 6.56872 6.55882 6.47433 6.64313 6.39039L5.93761 5.68171ZM6.1476 5.35518C6.06813 5.51218 6.00347 5.61614 5.93761 5.68171L6.64313 6.39039C6.83046 6.2039 6.95457 5.9752 7.0398 5.80683L6.1476 5.35518ZM6.44451 4.71384C6.32009 4.99106 6.22632 5.19968 6.1476 5.35518L7.0398 5.80683C7.13153 5.62561 7.23624 5.392 7.35683 5.1233L6.44451 4.71384ZM6.4411 4.7216L6.4411 4.72161L7.36024 5.11553L7.36025 5.11552L6.4411 4.7216ZM6.4499 4.70183L6.44451 4.71383L7.35684 5.1233L7.36222 5.1113L6.4499 4.70183ZM12.0006 1.10815C9.52842 1.10815 7.40065 2.58343 6.44989 4.70184L7.36222 5.1113C8.15754 3.33924 9.93634 2.10815 12.0006 2.10815V1.10815ZM17.5514 4.70184C16.6006 2.58343 14.4728 1.10815 12.0006 1.10815V2.10815C14.0649 2.10815 15.8437 3.33924 16.639 5.1113L17.5514 4.70184ZM17.5568 4.714L17.5514 4.70184L16.639 5.1113L16.6445 5.12346L17.5568 4.714ZM17.8537 5.35518C17.775 5.19972 17.6812 4.99114 17.5568 4.714L16.6445 5.12346C16.7651 5.39209 16.8697 5.62564 16.9615 5.80683L17.8537 5.35518ZM18.0637 5.6817C17.9978 5.61614 17.9331 5.51218 17.8537 5.35518L16.9615 5.80683C17.0467 5.9752 17.1708 6.2039 17.3581 6.39039L18.0637 5.6817ZM18.2235 5.81605C18.1707 5.78188 18.1227 5.74047 18.0637 5.6817L17.3581 6.39039C17.4425 6.47433 17.546 6.56871 17.6801 6.65553L18.2235 5.81605ZM18.4115 5.90687C18.3337 5.87708 18.2763 5.85021 18.2235 5.81605L17.6801 6.65553C17.8142 6.74235 17.9427 6.79816 18.0538 6.84072L18.4115 5.90687ZM18.7411 5.96475C18.6008 5.9565 18.498 5.94001 18.4115 5.90687L18.0538 6.84072C18.2813 6.92782 18.5029 6.95247 18.6823 6.96302L18.7411 5.96475ZM19.2834 5.97302C19.0526 5.97302 18.8785 5.97283 18.7411 5.96475L18.6823 6.96302C18.8556 6.97322 19.0631 6.97302 19.2834 6.97302L19.2834 5.97302ZM19.2979 5.97302H19.2834V6.97302H19.2979V5.97302ZM22.9466 9.62167C22.9466 7.60657 21.313 5.97302 19.2979 5.97302V6.97302C20.7607 6.97302 21.9466 8.15886 21.9466 9.62167H22.9466ZM19.2979 13.2703C21.313 13.2703 22.9466 11.6368 22.9466 9.62167H21.9466C21.9466 11.0845 20.7607 12.2703 19.2979 12.2703V13.2703ZM16.7615 13.2703H19.2979V12.2703H16.7615V13.2703ZM18.115 13.4168L17.115 12.4168L16.4079 13.1239L17.4079 14.1239L18.115 13.4168ZM19.2979 13.2703H17.7615V14.2703H19.2979V13.2703ZM22.9466 9.62167C22.9466 11.6368 21.313 13.2703 19.2979 13.2703V14.2703C21.8653 14.2703 23.9466 12.189 23.9466 9.62167H22.9466ZM19.2979 5.97302C21.313 5.97302 22.9466 7.60657 22.9466 9.62167H23.9466C23.9466 7.05429 21.8653 4.97302 19.2979 4.97302V5.97302ZM18.7411 5.96475C18.8817 5.97302 19.0602 5.97302 19.2979 5.97302V4.97302C19.0477 4.97302 18.904 4.97261 18.7998 4.96648L18.7411 5.96475ZM18.4115 5.90687C18.4984 5.94013 18.6015 5.95654 18.7411 5.96475L18.7998 4.96648C18.7518 4.96365 18.7299 4.96034 18.7251 4.95952C18.7213 4.95887 18.7396 4.96169 18.7692 4.97302L18.4115 5.90687ZM18.2235 5.81606C18.2764 5.85031 18.334 5.87717 18.4115 5.90687L18.7692 4.97302C18.7582 4.96882 18.7507 4.96574 18.7458 4.96369C18.7409 4.96164 18.7394 4.96085 18.7402 4.96127C18.7412 4.96174 18.7448 4.9635 18.7503 4.96654C18.753 4.96806 18.7559 4.96975 18.7589 4.97158C18.762 4.97343 18.7647 4.97513 18.7669 4.97655L18.2235 5.81606ZM18.0637 5.6817C18.1225 5.74026 18.1706 5.78178 18.2235 5.81604L18.7669 4.97657C18.7691 4.97799 18.7717 4.97976 18.7747 4.98179C18.7776 4.98381 18.7803 4.98577 18.7828 4.98763C18.7879 4.99136 18.7909 4.99393 18.7918 4.99463C18.7925 4.99525 18.7911 4.99412 18.7873 4.99053C18.7834 4.98694 18.7775 4.98131 18.7692 4.97302L18.0637 5.6817ZM18.7378 4.94432L18.7377 4.94427L18.0951 5.71046L18.0952 5.71051L18.7378 4.94432ZM17.9641 5.55318C17.9801 5.57837 17.9951 5.59982 18.009 5.61826C18.016 5.62752 18.0228 5.63605 18.0293 5.64395C18.0326 5.64791 18.0358 5.65163 18.0388 5.65513C18.0404 5.65688 18.0418 5.65848 18.0431 5.65995C18.0437 5.66068 18.0443 5.66132 18.0448 5.66186C18.0453 5.66237 18.0457 5.66281 18.0456 5.66278L18.7873 4.99205C18.7872 4.99194 18.7875 4.99229 18.7879 4.99269C18.7883 4.99312 18.7888 4.99363 18.7893 4.9942C18.7903 4.99537 18.7914 4.99658 18.7925 4.99785C18.7947 5.00039 18.7967 5.0028 18.7986 5.00505C18.8023 5.00953 18.8051 5.01308 18.8069 5.0155C18.8105 5.02026 18.8105 5.02061 18.8069 5.015L17.9641 5.55318ZM17.8537 5.35519C17.8936 5.43407 17.9297 5.49941 17.9641 5.55318L18.8069 5.015C18.7973 5.00006 18.778 4.96702 18.7459 4.90353L17.8537 5.35519ZM17.5514 4.70184C17.6784 4.98487 17.7737 5.19729 17.8537 5.35518L18.7459 4.90353C18.6791 4.77157 18.595 4.58488 18.4637 4.29238L17.5514 4.70184ZM12.0006 1.10815C14.4729 1.10815 16.6006 2.58345 17.5514 4.70184L18.4637 4.29238C17.3576 1.82795 14.8811 0.108154 12.0006 0.108154V1.10815Z" fill="#252A2E"/>
<path d="M7 16.8889L12 12M12 12L17 16.8889M12 12L12 23" stroke="#252A2E" stroke-width="2" stroke-linecap="round"/>
</svg>
