<svg width="18" height="18" viewBox="0 0 18 18" fill="none" xmlns="http://www.w3.org/2000/svg">
<g clip-path="url(#clip0_2046_5663)">
<path fill-rule="evenodd" clip-rule="evenodd" d="M17.9993 0L18 6.27671L16.2001 6.27691L16.1997 3.07266L14.3997 4.87281L13.1269 3.60008L14.9267 1.80009L11.6997 1.80021L11.6997 0.000232813L17.9993 0ZM9.63828 9.63856L10.8459 6.01551H12.5535L13.7612 9.63856L17.3842 10.8462V12.5539L13.7612 13.7615L12.5535 17.3846H10.8459L9.63828 13.7615L6.0153 12.5539V10.8462L9.63828 9.63856ZM11.6997 9.14613L11.2036 10.6347L10.6344 11.2039L9.14586 11.7L10.6344 12.1962L11.2036 12.7654L11.6997 14.254L12.1959 12.7654L12.7651 12.1962L14.2536 11.7L12.7651 11.2039L12.1959 10.6347L11.6997 9.14613ZM1.79994 11.7231L1.80031 14.9273L3.60029 13.1272L4.87309 14.3999L3.07328 16.1999L6.30025 16.1998L6.30032 17.9998L0.000723798 18L0 11.7233L1.79994 11.7231Z" fill="#252A2E"/>
<path fill-rule="evenodd" clip-rule="evenodd" d="M3.73557 3.73574L4.43767 1.62941H5.46221L6.16431 3.73574L8.2706 4.43785V5.46241L6.16431 6.16452L5.46221 8.27085H4.43767L3.73557 6.16452L1.62928 5.46241V4.43785L3.73557 3.73574Z" fill="#252A2E"/>
</g>
<defs>
<clipPath id="clip0_2046_5663">
<rect width="18" height="18" fill="white"/>
</clipPath>
</defs>
</svg>
