<svg width="68" height="35" viewBox="0 0 68 35" fill="none" xmlns="http://www.w3.org/2000/svg">
<path d="M20.8211 5.84375C21.5436 5.84375 22.0629 5.98948 22.379 6.28093C22.6951 6.57238 22.8532 7.03197 22.8532 7.65972V33.1505C22.8532 33.7782 22.6951 34.2378 22.379 34.5293C22.0629 34.8207 21.5436 34.9664 20.8211 34.9664C20.1211 34.9664 19.6131 34.8095 19.297 34.4956C18.9809 34.2042 18.8228 33.7558 18.8228 33.1505V21.6157H4.53035V33.1505C4.53035 33.7558 4.361 34.2042 4.02232 34.4956C3.70621 34.8095 3.19819 34.9664 2.49824 34.9664C1.79829 34.9664 1.29026 34.8095 0.974159 34.4956C0.658053 34.2042 0.5 33.7558 0.5 33.1505V7.65972C0.5 7.03197 0.658053 6.57238 0.974159 6.28093C1.29026 5.98948 1.79829 5.84375 2.49824 5.84375C3.19819 5.84375 3.70621 5.98948 4.02232 6.28093C4.361 6.57238 4.53035 7.03197 4.53035 7.65972V17.8493H18.8228V7.65972C18.8228 7.03197 18.9809 6.57238 19.297 6.28093C19.6131 5.98948 20.1211 5.84375 20.8211 5.84375Z" fill="url(#paint0_linear_1911_18315)"/>
<path d="M35.4118 35.0001C33.3119 35.0001 31.5508 34.5965 30.1283 33.7894C28.7058 32.9823 27.6446 31.9174 26.9446 30.5947C26.2673 29.2495 25.9286 27.7923 25.9286 26.2229V21.7503C25.9286 20.1809 26.2673 18.7349 26.9446 17.4121C27.6446 16.067 28.7058 15.002 30.1283 14.2174C31.5508 13.4103 33.3119 13.0067 35.4118 13.0067C37.5116 13.0067 39.2728 13.4103 40.6952 14.2174C42.1403 15.002 43.2015 16.067 43.8789 17.4121C44.5788 18.7349 44.9288 20.1809 44.9288 21.7503V26.2229C44.9288 27.7923 44.5788 29.2495 43.8789 30.5947C43.2015 31.9174 42.1403 32.9823 40.6952 33.7894C39.2728 34.5965 37.5116 35.0001 35.4118 35.0001ZM35.4118 31.1664C37.2407 31.1664 38.618 30.6395 39.5437 29.5858C40.492 28.5097 40.9662 26.9403 40.9662 24.8778V23.0954C40.9662 21.0328 40.492 19.4747 39.5437 18.421C38.618 17.3673 37.2407 16.8404 35.4118 16.8404C33.6054 16.8404 32.2394 17.3673 31.3137 18.421C30.3879 19.4747 29.9251 21.0328 29.9251 23.0954V24.8778C29.9251 26.9403 30.3879 28.5097 31.3137 29.5858C32.2394 30.6395 33.6054 31.1664 35.4118 31.1664Z" fill="url(#paint1_linear_1911_18315)"/>
<path d="M49.9964 34.9664C49.319 34.9664 48.811 34.8095 48.4723 34.4956C48.1562 34.2042 47.9981 33.7558 47.9981 33.1505V14.8227C47.9981 14.1949 48.1562 13.7354 48.4723 13.4439C48.7884 13.13 49.2964 12.9731 49.9964 12.9731C50.6963 12.9731 51.2043 13.13 51.5204 13.4439C51.8365 13.7354 51.9946 14.1949 51.9946 14.8227V33.1505C51.9946 33.7558 51.8253 34.2042 51.4866 34.4956C51.1705 34.8095 50.6737 34.9664 49.9964 34.9664Z" fill="url(#paint2_linear_1911_18315)"/>
<path d="M65.705 30.8301C66.9017 30.8301 67.5 31.4578 67.5 32.7133C67.5 33.3635 67.3532 33.8343 67.0597 34.1257C66.7662 34.4172 66.3146 34.5629 65.705 34.5629H63.7745C61.7424 34.5629 60.1844 34.0809 59.1006 33.1168C58.0168 32.1752 57.4749 30.7852 57.4749 28.9469V17.0422H56.0525C55.4654 17.0422 55.0364 16.8965 54.7655 16.605C54.5171 16.3136 54.3929 15.8316 54.3929 15.159C54.3929 14.5088 54.5171 14.038 54.7655 13.7466C55.0364 13.4551 55.4654 13.3094 56.0525 13.3094H57.4749V10.2828C57.4749 9.67745 57.633 9.22907 57.9491 8.93762C58.2652 8.62375 58.7732 8.46681 59.4732 8.46681C60.1731 8.46681 60.6812 8.62375 60.9973 8.93762C61.3134 9.22907 61.4714 9.67745 61.4714 10.2828V13.3094H65.3663C65.9533 13.3094 66.3711 13.4551 66.6194 13.7466C66.8904 14.038 67.0258 14.5088 67.0258 15.159C67.0258 15.8316 66.8904 16.3136 66.6194 16.605C66.3711 16.8965 65.9533 17.0422 65.3663 17.0422H61.4714V28.8123C61.4714 29.5073 61.6859 30.023 62.1149 30.3593C62.5439 30.6731 63.0971 30.8301 63.7745 30.8301H65.705Z" fill="url(#paint3_linear_1911_18315)"/>
<path d="M50.3486 0.506836C50.3812 0.512208 50.4124 0.520594 50.4414 0.53125L50.4512 0.535156L50.46 0.538086C50.6116 0.587249 50.7324 0.704979 50.7803 0.857422L50.7959 0.924805C50.8714 1.38786 51.0708 2.50497 51.3184 3.43262L51.3203 3.44043L51.3232 3.44727L51.3359 3.49219C51.3619 3.57926 51.3872 3.67098 51.4385 3.77148L51.5 3.875L51.5068 3.88574C51.7242 4.22799 52.0485 4.39401 52.2812 4.50488L52.3057 4.51562L52.3311 4.52441L52.4062 4.54883L52.627 4.60645L53.4082 4.77246H53.4102L53.7168 4.83203H53.7178C53.8695 4.86127 54.0203 4.89069 54.1904 4.92578L54.7793 5.05566L54.7969 5.05957L55.0928 5.12598C55.3315 5.16556 55.4984 5.36456 55.5068 5.58984L55.5 5.6875C55.4856 5.77318 55.4499 5.84983 55.3984 5.91309L55.3418 5.97168L55.335 5.97852C55.2834 6.02578 55.221 6.0626 55.1504 6.08496L55.0781 6.10254C54.6259 6.1755 53.4775 6.41119 52.5332 6.64844L52.5234 6.65039L52.5137 6.65332L52.458 6.66992C52.3716 6.6952 52.2807 6.72025 52.1807 6.76758L52.0771 6.82324L52.0742 6.8252C51.7143 7.04643 51.5474 7.36946 51.4551 7.57422L51.4492 7.58594L51.4453 7.59766L51.4131 7.69336L51.3555 7.9082L51.1885 8.66895L51.1875 8.66992C51.1137 9.02631 51.0471 9.29601 50.9512 9.68359L50.877 9.9834L50.874 9.99609L50.7383 10.4551C50.6818 10.6232 50.5402 10.7432 50.373 10.7793L50.2998 10.7891L50.293 10.79C50.0676 10.8079 49.863 10.6727 49.7881 10.4707L49.7646 10.3799C49.6904 9.92405 49.4656 8.75638 49.2285 7.80859L49.2256 7.79785L49.2227 7.78809L49.207 7.7334C49.1816 7.64722 49.1554 7.55643 49.1074 7.45605L49.0518 7.35156L49.0498 7.34863L48.9619 7.22363C48.7479 6.95034 48.4778 6.81329 48.2988 6.7334L48.2861 6.72852L48.2744 6.72363L48.1797 6.69238L47.9639 6.63477L47.2002 6.46875H47.1992L46.8926 6.40723H46.8916C46.7447 6.37829 46.5969 6.34953 46.4316 6.31445L45.8652 6.18457L45.8525 6.18164L45.7373 6.14844H45.7363L45.7061 6.13965L45.6357 6.11914C45.6045 6.11027 45.579 6.10364 45.5586 6.09863L45.5391 6.09375L45.5195 6.09082L45.4316 6.06836C45.2626 6.00825 45.1424 5.86199 45.1123 5.69238L45.1045 5.60645V5.59766C45.1026 5.39285 45.2336 5.20529 45.4316 5.13477L45.5205 5.11133C45.7888 5.06803 46.2827 4.97903 46.832 4.86621L47.3936 4.74707C47.6157 4.69768 47.8392 4.64537 48.0527 4.5918L48.0625 4.58887L48.0713 4.58594L48.127 4.57031C48.2137 4.54492 48.3048 4.51928 48.4053 4.47168L48.5088 4.41602L48.5117 4.41406C48.8714 4.19289 49.0386 3.87074 49.1309 3.66602L49.1357 3.65332L49.1406 3.6416L49.1729 3.54688L49.2305 3.33105L49.3975 2.57129V2.57031L49.459 2.26367L49.46 2.25977L49.459 2.25879L49.4678 2.22363C49.4956 2.08391 49.5234 1.9418 49.5576 1.7832L49.6826 1.24316L49.6855 1.23047C49.701 1.17424 49.7206 1.11045 49.7363 1.05762V1.05664L49.749 1.01465L49.7695 0.945312V0.942383L49.7715 0.936523V0.933594L49.7764 0.916016L49.7793 0.899414C49.822 0.673538 50.0194 0.507872 50.249 0.5L50.3486 0.506836Z" fill="#279AF2" stroke="#279AF2"/>
<defs>
<linearGradient id="paint0_linear_1911_18315" x1="-30.1052" y1="28.189" x2="60.5106" y2="13.6474" gradientUnits="userSpaceOnUse">
<stop stop-color="#39434A"/>
<stop offset="1" stop-color="#279AF2"/>
</linearGradient>
<linearGradient id="paint1_linear_1911_18315" x1="-30.1052" y1="28.189" x2="60.5106" y2="13.6474" gradientUnits="userSpaceOnUse">
<stop stop-color="#39434A"/>
<stop offset="1" stop-color="#279AF2"/>
</linearGradient>
<linearGradient id="paint2_linear_1911_18315" x1="-30.1052" y1="28.189" x2="60.5106" y2="13.6474" gradientUnits="userSpaceOnUse">
<stop stop-color="#39434A"/>
<stop offset="1" stop-color="#279AF2"/>
</linearGradient>
<linearGradient id="paint3_linear_1911_18315" x1="-30.1052" y1="28.189" x2="60.5106" y2="13.6474" gradientUnits="userSpaceOnUse">
<stop stop-color="#39434A"/>
<stop offset="1" stop-color="#279AF2"/>
</linearGradient>
</defs>
</svg>
