<svg viewBox="0 0 67 35" fill="none" xmlns="http://www.w3.org/2000/svg">
<path d="M20.3211 5.84375C21.0436 5.84375 21.5629 5.98948 21.879 6.28093C22.1951 6.57238 22.3532 7.03197 22.3532 7.65972V33.1505C22.3532 33.7782 22.1951 34.2378 21.879 34.5293C21.5629 34.8207 21.0436 34.9664 20.3211 34.9664C19.6211 34.9664 19.1131 34.8095 18.797 34.4956C18.4809 34.2042 18.3228 33.7558 18.3228 33.1505V21.6157H4.03035V33.1505C4.03035 33.7558 3.861 34.2042 3.52232 34.4956C3.20621 34.8095 2.69819 34.9664 1.99824 34.9664C1.29829 34.9664 0.790264 34.8095 0.474159 34.4956C0.158053 34.2042 0 33.7558 0 33.1505V7.65972C0 7.03197 0.158053 6.57238 0.474159 6.28093C0.790264 5.98948 1.29829 5.84375 1.99824 5.84375C2.69819 5.84375 3.20621 5.98948 3.52232 6.28093C3.861 6.57238 4.03035 7.03197 4.03035 7.65972V17.8493H18.3228V7.65972C18.3228 7.03197 18.4809 6.57238 18.797 6.28093C19.1131 5.98948 19.6211 5.84375 20.3211 5.84375Z" fill="url(#paint0_linear_109_1040)"/>
<path d="M34.9118 35.0001C32.8119 35.0001 31.0508 34.5965 29.6283 33.7894C28.2058 32.9823 27.1446 31.9174 26.4446 30.5947C25.7673 29.2495 25.4286 27.7923 25.4286 26.2229V21.7503C25.4286 20.1809 25.7673 18.7349 26.4446 17.4121C27.1446 16.067 28.2058 15.002 29.6283 14.2174C31.0508 13.4103 32.8119 13.0067 34.9118 13.0067C37.0116 13.0067 38.7728 13.4103 40.1952 14.2174C41.6403 15.002 42.7015 16.067 43.3789 17.4121C44.0788 18.7349 44.4288 20.1809 44.4288 21.7503V26.2229C44.4288 27.7923 44.0788 29.2495 43.3789 30.5947C42.7015 31.9174 41.6403 32.9823 40.1952 33.7894C38.7728 34.5965 37.0116 35.0001 34.9118 35.0001ZM34.9118 31.1664C36.7407 31.1664 38.118 30.6395 39.0437 29.5858C39.992 28.5097 40.4662 26.9403 40.4662 24.8778V23.0954C40.4662 21.0328 39.992 19.4747 39.0437 18.421C38.118 17.3673 36.7407 16.8404 34.9118 16.8404C33.1054 16.8404 31.7394 17.3673 30.8137 18.421C29.8879 19.4747 29.4251 21.0328 29.4251 23.0954V24.8778C29.4251 26.9403 29.8879 28.5097 30.8137 29.5858C31.7394 30.6395 33.1054 31.1664 34.9118 31.1664Z" fill="url(#paint1_linear_109_1040)"/>
<path d="M49.4964 34.9664C48.819 34.9664 48.311 34.8095 47.9723 34.4956C47.6562 34.2042 47.4981 33.7558 47.4981 33.1505V14.8227C47.4981 14.1949 47.6562 13.7353 47.9723 13.4439C48.2884 13.13 48.7964 12.9731 49.4964 12.9731C50.1963 12.9731 50.7043 13.13 51.0204 13.4439C51.3365 13.7353 51.4946 14.1949 51.4946 14.8227V33.1505C51.4946 33.7558 51.3253 34.2042 50.9866 34.4956C50.6705 34.8095 50.1737 34.9664 49.4964 34.9664Z" fill="url(#paint2_linear_109_1040)"/>
<path d="M65.205 30.8301C66.4017 30.8301 67 31.4578 67 32.7133C67 33.3635 66.8532 33.8343 66.5597 34.1257C66.2662 34.4172 65.8146 34.5629 65.205 34.5629H63.2745C61.2424 34.5629 59.6844 34.0809 58.6006 33.1168C57.5168 32.1752 56.9749 30.7852 56.9749 28.9469V17.0422H55.5525C54.9654 17.0422 54.5364 16.8965 54.2655 16.605C54.0171 16.3136 53.8929 15.8316 53.8929 15.159C53.8929 14.5088 54.0171 14.038 54.2655 13.7466C54.5364 13.4551 54.9654 13.3094 55.5525 13.3094H56.9749V10.2828C56.9749 9.67745 57.133 9.22907 57.4491 8.93762C57.7652 8.62375 58.2732 8.46681 58.9732 8.46681C59.6731 8.46681 60.1812 8.62375 60.4973 8.93762C60.8134 9.22907 60.9714 9.67745 60.9714 10.2828V13.3094H64.8663C65.4533 13.3094 65.8711 13.4551 66.1194 13.7466C66.3904 14.038 66.5258 14.5088 66.5258 15.159C66.5258 15.8316 66.3904 16.3136 66.1194 16.605C65.8711 16.8965 65.4533 17.0422 64.8663 17.0422H60.9714V28.8123C60.9714 29.5073 61.1859 30.023 61.6149 30.3593C62.0439 30.6731 62.5971 30.8301 63.2745 30.8301H65.205Z" fill="url(#paint3_linear_109_1040)"/>
<path d="M45.8134 6.28828C46.0289 6.33546 46.2115 6.37143 46.393 6.40718L46.3941 6.4074C46.4941 6.42709 46.595 6.44697 46.7002 6.46851L46.701 6.46867C47.0396 6.53859 47.2843 6.59108 47.4651 6.63492C47.555 6.65673 47.6252 6.67547 47.6806 6.6921L47.6806 6.6921C47.7252 6.70548 47.7553 6.71602 47.7752 6.72368L47.7874 6.72838L47.7993 6.73371C48.0038 6.82496 48.3278 6.99028 48.5506 7.3491L48.5524 7.35197L48.5523 7.35198C48.6354 7.48787 48.6703 7.60638 48.7027 7.71657C48.7045 7.72251 48.7062 7.72842 48.708 7.73432C48.708 7.73434 48.708 7.73436 48.708 7.73438L48.7238 7.78767L48.7269 7.79804L48.7295 7.80853C48.9666 8.75637 49.1912 9.92416 49.2655 10.38C49.3063 10.6306 49.5363 10.8105 49.794 10.79L49.8008 10.7895L49.8008 10.7896C49.9991 10.7766 50.1748 10.6471 50.2393 10.4546C50.2691 10.3656 50.3358 10.1392 50.375 9.99629L50.3767 9.99008L50.3782 9.98384C50.4049 9.87549 50.4294 9.77619 50.4524 9.68358L50.4524 9.68332C50.5484 9.29561 50.615 9.02624 50.6888 8.66969L50.689 8.66892C50.7592 8.33208 50.812 8.08844 50.8561 7.90833C50.8781 7.8187 50.897 7.74863 50.9138 7.69321C50.9274 7.64837 50.9381 7.61812 50.9459 7.59804L50.9506 7.58587L50.956 7.57397C51.0483 7.36921 51.2149 7.04647 51.5748 6.82524L51.5777 6.82347L51.5777 6.82348C51.7133 6.7414 51.8313 6.70702 51.9418 6.67483C51.9476 6.67312 51.9535 6.67141 51.9593 6.6697C51.9594 6.66966 51.9596 6.66963 51.9597 6.6696L52.0148 6.6534L52.0243 6.65062L52.0339 6.6482C52.9782 6.41093 54.1264 6.17543 54.5786 6.10246C54.6798 6.08614 54.7671 6.04154 54.8357 5.97863L54.8429 5.97204L54.843 5.97211C54.9248 5.90004 54.982 5.80222 55.0013 5.68791C55.0455 5.425 54.867 5.17085 54.5941 5.12559L54.6687 4.67586L54.5941 5.12559C54.5322 5.11532 54.421 5.09331 54.2983 5.06003L54.2896 5.05765L54.2807 5.05559C54.2807 5.05559 54.2807 5.05559 54.2807 5.05559C53.8222 4.9488 53.5221 4.89097 53.2183 4.83245L53.2174 4.83226C53.1183 4.81316 53.0174 4.79373 52.9114 4.77264L52.9096 4.77229C52.5648 4.70239 52.3139 4.6499 52.1282 4.60597C52.0357 4.58408 51.9635 4.5653 51.9069 4.54865L51.9069 4.54865C51.8739 4.53895 51.8494 4.53093 51.8316 4.52467L51.8066 4.51585L51.7826 4.50442C51.5497 4.39351 51.2249 4.22801 51.0076 3.88553L51.0075 3.88553L51.0043 3.88043L51.001 3.87542L51.001 3.87541C50.911 3.74109 50.876 3.62296 50.8433 3.5126C50.8413 3.50579 50.8393 3.49902 50.8373 3.49227L45.8134 6.28828ZM45.8134 6.28828L47.0677 4.70755C47.232 4.66998 47.3955 4.63108 47.5535 4.59143L47.5632 4.589L47.5727 4.58619L47.6278 4.57001C47.6279 4.56999 47.628 4.56996 47.628 4.56994M45.8134 6.28828L47.628 4.56994M47.628 4.56994C47.6339 4.56822 47.6398 4.56651 47.6457 4.56479C47.7562 4.5326 47.8742 4.49821 48.0097 4.41612L48.0097 4.41613L48.0126 4.41437C48.3725 4.19314 48.5392 3.87041 48.6315 3.66566L48.6368 3.65377L48.6415 3.64162C48.6494 3.62152 48.6601 3.59125 48.6737 3.54641L47.628 4.56994ZM50.8238 3.44704L50.8372 3.49191L48.6737 3.54641C48.6905 3.49098 48.7094 3.42091 48.7313 3.33129C48.7754 3.15121 48.8282 2.90762 48.8984 2.57087L48.8986 2.57006C48.9147 2.49211 48.9299 2.41653 48.9448 2.34195L50.2213 0.733231C50.2591 0.789718 50.2855 0.854671 50.297 0.925193C50.3724 1.38831 50.5722 2.50519 50.8198 3.43292L50.8217 3.44001L50.8238 3.44704ZM45.0216 5.11172C45.1499 5.09101 45.3299 5.05982 45.5428 5.02056L44.7806 5.98112C44.671 5.88913 44.6045 5.75222 44.6055 5.60614L44.6056 5.60614L44.6055 5.59785C44.6032 5.36361 44.7746 5.15157 45.0216 5.11172Z" fill="#279AF2" stroke="#279AF2"/>
<defs>
<linearGradient id="paint0_linear_109_1040" x1="-30.6052" y1="28.189" x2="60.0106" y2="13.6474" gradientUnits="userSpaceOnUse">
<stop stop-color="#39434A"/>
<stop offset="1" stop-color="#279AF2"/>
</linearGradient>
<linearGradient id="paint1_linear_109_1040" x1="-30.6052" y1="28.189" x2="60.0106" y2="13.6474" gradientUnits="userSpaceOnUse">
<stop stop-color="#39434A"/>
<stop offset="1" stop-color="#279AF2"/>
</linearGradient>
<linearGradient id="paint2_linear_109_1040" x1="-30.6052" y1="28.189" x2="60.0106" y2="13.6474" gradientUnits="userSpaceOnUse">
<stop stop-color="#39434A"/>
<stop offset="1" stop-color="#279AF2"/>
</linearGradient>
<linearGradient id="paint3_linear_109_1040" x1="-30.6052" y1="28.189" x2="60.0106" y2="13.6474" gradientUnits="userSpaceOnUse">
<stop stop-color="#39434A"/>
<stop offset="1" stop-color="#279AF2"/>
</linearGradient>
</defs>
</svg>
