<svg width="24" height="31" viewBox="0 0 24 31" fill="none" xmlns="http://www.w3.org/2000/svg">
<path d="M21.1833 0.907999C21.9087 0.907999 22.43 1.05533 22.7473 1.35C23.0647 1.64467 23.2233 2.10933 23.2233 2.744V28.516C23.2233 29.1507 23.0647 29.6153 22.7473 29.91C22.43 30.2047 21.9087 30.352 21.1833 30.352C20.4807 30.352 19.9707 30.1933 19.6533 29.876C19.336 29.5813 19.1773 29.128 19.1773 28.516V16.854H4.82932V28.516C4.82932 29.128 4.65932 29.5813 4.31932 29.876C4.00199 30.1933 3.49199 30.352 2.78932 30.352C2.08665 30.352 1.57665 30.1933 1.25932 29.876C0.941987 29.5813 0.78332 29.128 0.78332 28.516V2.744C0.78332 2.10933 0.941987 1.64467 1.25932 1.35C1.57665 1.05533 2.08665 0.907999 2.78932 0.907999C3.49199 0.907999 4.00199 1.05533 4.31932 1.35C4.65932 1.64467 4.82932 2.10933 4.82932 2.744V13.046H19.1773V2.744C19.1773 2.10933 19.336 1.64467 19.6533 1.35C19.9707 1.05533 20.4807 0.907999 21.1833 0.907999Z" fill="url(#paint0_linear_75_811)"/>
<defs>
<linearGradient id="paint0_linear_75_811" x1="-13.0423" y1="23.5" x2="23.6115" y2="21.1967" gradientUnits="userSpaceOnUse">
<stop stop-color="#39434A"/>
<stop offset="1" stop-color="#279AF2"/>
</linearGradient>
</defs>
</svg>
