<svg width="82" height="43" viewBox="0 0 82 43" fill="none" xmlns="http://www.w3.org/2000/svg">
<path d="M24.8706 7.17969C25.7549 7.17969 26.3904 7.35872 26.7773 7.71679C27.1642 8.07486 27.3576 8.63951 27.3576 9.41073V40.728C27.3576 41.4992 27.1642 42.0638 26.7773 42.4219C26.3904 42.78 25.7549 42.959 24.8706 42.959C24.0139 42.959 23.3922 42.7662 23.0053 42.3806C22.6184 42.0225 22.425 41.4716 22.425 40.728V26.5567H4.93266V40.728C4.93266 41.4716 4.72541 42.0225 4.3109 42.3806C3.92402 42.7662 3.30226 42.959 2.44561 42.959C1.58895 42.959 0.967189 42.7662 0.580313 42.3806C0.193438 42.0225 0 41.4716 0 40.728V9.41073C0 8.63951 0.193438 8.07486 0.580313 7.71679C0.967189 7.35872 1.58895 7.17969 2.44561 7.17969C3.30226 7.17969 3.92402 7.35872 4.3109 7.71679C4.72541 8.07486 4.93266 8.63951 4.93266 9.41073V21.9294H22.425V9.41073C22.425 8.63951 22.6184 8.07486 23.0053 7.71679C23.3922 7.35872 24.0139 7.17969 24.8706 7.17969Z" fill="#252A2E"/>
<path d="M42.7278 43.0003C40.1579 43.0003 38.0024 42.5045 36.2615 41.513C34.5205 40.5214 33.2217 39.2131 32.3651 37.588C31.5361 35.9353 31.1216 34.145 31.1216 32.2169V26.722C31.1216 24.7939 31.5361 23.0173 32.3651 21.3923C33.2217 19.7396 34.5205 18.4313 36.2615 17.4673C38.0024 16.4757 40.1579 15.9799 42.7278 15.9799C45.2978 15.9799 47.4532 16.4757 49.1942 17.4673C50.9627 18.4313 52.2615 19.7396 53.0906 21.3923C53.9472 23.0173 54.3755 24.7939 54.3755 26.722V32.2169C54.3755 34.145 53.9472 35.9353 53.0906 37.588C52.2615 39.2131 50.9627 40.5214 49.1942 41.513C47.4532 42.5045 45.2978 43.0003 42.7278 43.0003ZM42.7278 38.2903C44.9662 38.2903 46.6519 37.6431 47.7848 36.3485C48.9455 35.0264 49.5258 33.0983 49.5258 30.5643V28.3746C49.5258 25.8406 48.9455 23.9263 47.7848 22.6317C46.6519 21.3372 44.9662 20.6899 42.7278 20.6899C40.5171 20.6899 38.8453 21.3372 37.7123 22.6317C36.5793 23.9263 36.0128 25.8406 36.0128 28.3746V30.5643C36.0128 33.0983 36.5793 35.0264 37.7123 36.3485C38.8453 37.6431 40.5171 38.2903 42.7278 38.2903Z" fill="#252A2E"/>
<path d="M60.5776 42.959C59.7486 42.959 59.1269 42.7662 58.7124 42.3806C58.3255 42.0225 58.132 41.4716 58.132 40.728V18.211C58.132 17.4397 58.3255 16.8751 58.7124 16.517C59.0992 16.1314 59.721 15.9386 60.5776 15.9386C61.4343 15.9386 62.0561 16.1314 62.4429 16.517C62.8298 16.8751 63.0232 17.4397 63.0232 18.211V40.728C63.0232 41.4716 62.816 42.0225 62.4015 42.3806C62.0146 42.7662 61.4067 42.959 60.5776 42.959Z" fill="#252A2E"/>
<path d="M79.8031 37.8772C81.2677 37.8772 82 38.6484 82 40.1909C82 40.9896 81.8204 41.568 81.4611 41.9261C81.1019 42.2842 80.5492 42.4632 79.8031 42.4632H77.4404C74.9533 42.4632 73.0466 41.871 71.7202 40.6866C70.3937 39.5298 69.7305 37.8221 69.7305 35.5635V20.9378H67.9896C67.2711 20.9378 66.7461 20.7587 66.4145 20.4007C66.1105 20.0426 65.9585 19.4504 65.9585 18.6241C65.9585 17.8253 66.1105 17.2469 66.4145 16.8889C66.7461 16.5308 67.2711 16.3518 67.9896 16.3518H69.7305V12.6333C69.7305 11.8897 69.924 11.3388 70.3108 10.9807C70.6977 10.5951 71.3195 10.4023 72.1761 10.4023C73.0328 10.4023 73.6546 10.5951 74.0414 10.9807C74.4283 11.3388 74.6217 11.8897 74.6217 12.6333V16.3518H79.3886C80.1071 16.3518 80.6183 16.5308 80.9223 16.8889C81.2539 17.2469 81.4197 17.8253 81.4197 18.6241C81.4197 19.4504 81.2539 20.0426 80.9223 20.4007C80.6183 20.7587 80.1071 20.9378 79.3886 20.9378H74.6217V35.3982C74.6217 36.2521 74.8843 36.8856 75.4093 37.2988C75.9344 37.6844 76.6114 37.8772 77.4404 37.8772H79.8031Z" fill="#252A2E"/>
<path d="M61.0293 0.509766C61.0761 0.517536 61.121 0.529354 61.1631 0.544922L61.1719 0.548828L61.1816 0.551758C61.3999 0.622868 61.5755 0.794606 61.6455 1.01855L61.6689 1.11816C61.7611 1.68597 62.0042 3.05347 62.3057 4.1875L62.3076 4.19434L62.3096 4.20215L62.3262 4.25684C62.3585 4.36572 62.3872 4.46988 62.4443 4.58203L62.5127 4.69727L62.5137 4.69824V4.69922L62.5215 4.71191C62.7688 5.10301 63.14 5.29494 63.4238 5.43066L63.4482 5.44238L63.4727 5.45117L63.5596 5.47852L63.8242 5.54785L64.7773 5.75098H64.7793L65.1533 5.82422H65.1543V5.8252C65.3402 5.86115 65.5254 5.8962 65.7344 5.93945L66.459 6.09961H66.4629V6.10059L66.4844 6.10645C66.5574 6.12633 66.6271 6.14223 66.6875 6.15527L66.835 6.18457C67.1788 6.24182 67.4235 6.53172 67.4355 6.86328L67.4258 7.00684C67.4047 7.13272 67.3524 7.24536 67.2773 7.33789L67.1953 7.42383L67.1885 7.42969C67.1138 7.49844 67.0235 7.55249 66.9219 7.58496L66.8154 7.61035C66.2655 7.69946 64.864 7.98749 63.7109 8.27832L63.6914 8.28418L63.623 8.30371C63.5161 8.33511 63.4125 8.36446 63.2998 8.41797L63.1826 8.48145L63.1797 8.4834C62.7689 8.737 62.5769 9.1073 62.4668 9.35254L62.4609 9.36426L62.4561 9.37695L62.4199 9.48535L62.3516 9.74316L62.1475 10.6738V10.6748C62.1021 10.895 62.0583 11.0883 62.0117 11.2861L61.8574 11.9248L61.7666 12.2939L61.7656 12.2959L61.7617 12.3115L61.5938 12.8809C61.5111 13.1284 61.3047 13.3032 61.0635 13.3555L60.958 13.3701H60.9512C60.6269 13.3959 60.3291 13.2008 60.2197 12.9043L60.1855 12.7715C60.0951 12.2143 59.8205 10.7821 59.5312 9.62109L59.5283 9.61133L59.5254 9.60059L59.5059 9.53418V9.53223H59.5049C59.4736 9.42598 59.4451 9.32228 59.3916 9.20996L59.3281 9.09277L59.3262 9.08984L59.2256 8.94531C58.981 8.63193 58.6701 8.47382 58.4561 8.37793L58.4443 8.37207L58.4326 8.36719L58.3242 8.33105L58.0664 8.2627L57.1348 8.05957L57.1338 8.05859L56.7588 7.9834C56.5788 7.94781 56.3974 7.9124 56.1943 7.86914L55.498 7.70996L55.4941 7.70898H55.4951L55.4795 7.70508L55.3359 7.66406L55.2979 7.65332L55.2969 7.65234H55.2959L55.2129 7.62793C55.1751 7.61715 55.1452 7.60921 55.1221 7.60352L55.1025 7.59863L55.083 7.5957L54.9551 7.5625C54.7112 7.47503 54.5351 7.2629 54.4912 7.01367L54.4805 6.88672V6.87891C54.4775 6.57651 54.6695 6.30247 54.9561 6.2002L55.084 6.16699C55.4108 6.11406 56.0139 6.00546 56.6846 5.86719L57.3701 5.71973C57.6412 5.65922 57.9137 5.59578 58.1738 5.53027L58.1934 5.52441L58.2607 5.50488C58.368 5.47339 58.472 5.44432 58.585 5.39062L58.7012 5.32715L58.7041 5.3252C59.1152 5.07153 59.3078 4.70136 59.418 4.45605L59.4229 4.44434L59.4277 4.43164L59.4648 4.32324L59.5332 4.06543L59.7373 3.13477V3.13379L59.8125 2.75879L59.8223 2.70898C59.8563 2.5372 59.8916 2.36249 59.9336 2.16699L60.0869 1.49902V1.49609L60.0879 1.49707L60.0918 1.48145L60.1543 1.26562L60.1689 1.21387L60.1895 1.14453V1.13867L60.1953 1.12012H60.1963V1.11719L60.2012 1.10059L60.2041 1.08301C60.2668 0.750668 60.554 0.51153 60.8848 0.5L61.0293 0.509766Z" fill="#252A2E" stroke="#252A2E"/>
</svg>
