<svg width="49" height="25" viewBox="0 0 49 25" fill="none" xmlns="http://www.w3.org/2000/svg">
<path d="M14.5817 4.17578C15.1002 4.17578 15.4728 4.27987 15.6996 4.48805C15.9265 4.69623 16.0399 5.02451 16.0399 5.4729V23.6806C16.0399 24.129 15.9265 24.4573 15.6996 24.6654C15.4728 24.8736 15.1002 24.9777 14.5817 24.9777C14.0795 24.9777 13.7149 24.8656 13.4881 24.6414C13.2613 24.4332 13.1478 24.113 13.1478 23.6806V15.4415H2.89204V23.6806C2.89204 24.113 2.77052 24.4332 2.5275 24.6414C2.30067 24.8656 1.93613 24.9777 1.43387 24.9777C0.931609 24.9777 0.567067 24.8656 0.34024 24.6414C0.113413 24.4332 0 24.113 0 23.6806V5.4729C0 5.02451 0.113413 4.69623 0.34024 4.48805C0.567067 4.27987 0.931609 4.17578 1.43387 4.17578C1.93613 4.17578 2.30067 4.27987 2.5275 4.48805C2.77052 4.69623 2.89204 5.02451 2.89204 5.4729V12.7512H13.1478V5.4729C13.1478 5.02451 13.2613 4.69623 13.4881 4.48805C13.7149 4.27987 14.0795 4.17578 14.5817 4.17578Z" fill="url(#paint0_linear_2216_29961)"/>
<path d="M25.0515 25.0017C23.5447 25.0017 22.281 24.7135 21.2602 24.137C20.2395 23.5605 19.478 22.7998 18.9758 21.855C18.4897 20.8942 18.2467 19.8533 18.2467 18.7323V15.5376C18.2467 14.4166 18.4897 13.3837 18.9758 12.4389C19.478 11.4781 20.2395 10.7174 21.2602 10.1569C22.281 9.58044 23.5447 9.29219 25.0515 9.29219C26.5583 9.29219 27.822 9.58044 28.8427 10.1569C29.8797 10.7174 30.6411 11.4781 31.1272 12.4389C31.6295 13.3837 31.8806 14.4166 31.8806 15.5376V18.7323C31.8806 19.8533 31.6295 20.8942 31.1272 21.855C30.6411 22.7998 29.8797 23.5605 28.8427 24.137C27.822 24.7135 26.5583 25.0017 25.0515 25.0017ZM25.0515 22.2634C26.3638 22.2634 27.3522 21.887 28.0164 21.1344C28.6969 20.3657 29.0372 19.2448 29.0372 17.7715V16.4984C29.0372 15.0251 28.6969 13.9122 28.0164 13.1595C27.3522 12.4069 26.3638 12.0305 25.0515 12.0305C23.7553 12.0305 22.7751 12.4069 22.1108 13.1595C21.4466 13.9122 21.1144 15.0251 21.1144 16.4984V17.7715C21.1144 19.2448 21.4466 20.3657 22.1108 21.1344C22.7751 21.887 23.7553 22.2634 25.0515 22.2634Z" fill="url(#paint1_linear_2216_29961)"/>
<path d="M35.5169 24.9777C35.0308 24.9777 34.6663 24.8656 34.4233 24.6414C34.1965 24.4332 34.083 24.113 34.083 23.6806V10.5893C34.083 10.1409 34.1965 9.81264 34.4233 9.60446C34.6501 9.38027 35.0146 9.26817 35.5169 9.26817C36.0192 9.26817 36.3837 9.38027 36.6105 9.60446C36.8374 9.81264 36.9508 10.1409 36.9508 10.5893V23.6806C36.9508 24.113 36.8293 24.4332 36.5862 24.6414C36.3594 24.8656 36.003 24.9777 35.5169 24.9777Z" fill="url(#paint2_linear_2216_29961)"/>
<path d="M46.7889 22.0232C47.6476 22.0232 48.0769 22.4715 48.0769 23.3683C48.0769 23.8327 47.9716 24.169 47.761 24.3772C47.5504 24.5854 47.2263 24.6895 46.7889 24.6895H45.4036C43.9454 24.6895 42.8275 24.3452 42.0498 23.6566C41.2721 22.984 40.8833 21.9911 40.8833 20.678V12.1747H39.8626C39.4413 12.1747 39.1335 12.0706 38.939 11.8624C38.7608 11.6542 38.6717 11.3099 38.6717 10.8295C38.6717 10.3651 38.7608 10.0288 38.939 9.82065C39.1335 9.61247 39.4413 9.50838 39.8626 9.50838H40.8833V7.34651C40.8833 6.91414 40.9967 6.59386 41.2235 6.38569C41.4503 6.16149 41.8149 6.0494 42.3171 6.0494C42.8194 6.0494 43.1839 6.16149 43.4108 6.38569C43.6376 6.59386 43.751 6.91414 43.751 7.34651V9.50838H46.5458C46.9671 9.50838 47.2668 9.61247 47.445 9.82065C47.6395 10.0288 47.7367 10.3651 47.7367 10.8295C47.7367 11.3099 47.6395 11.6542 47.445 11.8624C47.2668 12.0706 46.9671 12.1747 46.5458 12.1747H43.751V20.5819C43.751 21.0783 43.9049 21.4467 44.2128 21.6869C44.5206 21.9111 44.9176 22.0232 45.4036 22.0232H46.7889Z" fill="url(#paint3_linear_2216_29961)"/>
<path d="M35.7476 0.50293C35.7623 0.505353 35.7759 0.509042 35.7886 0.513672L35.7974 0.517578L35.8071 0.520508C35.8648 0.539185 35.9098 0.579194 35.9341 0.629883L35.9517 0.68457C36.0061 1.01718 36.1502 1.81999 36.3296 2.48926L36.3315 2.49707L36.3335 2.50391L36.3433 2.53613C36.3612 2.5962 36.3823 2.67271 36.4263 2.75879L36.479 2.84863L36.4839 2.85547C36.6183 3.06495 36.8008 3.19161 36.9546 3.27539L37.1206 3.3584L37.146 3.36719L37.2065 3.38672L37.3726 3.42871L37.938 3.54883H37.9399L38.1606 3.5918C38.3769 3.63328 38.5893 3.6732 38.9126 3.74805V3.74902L38.9253 3.75195L39.1519 3.80176C39.258 3.81941 39.3263 3.90622 39.3296 3.99902L39.3276 4.03906C39.3236 4.06266 39.3154 4.08461 39.3042 4.10449L39.2603 4.1582L39.2534 4.16406C39.2387 4.17749 39.2214 4.18913 39.2026 4.19824L39.1411 4.21777C38.8117 4.27068 37.9837 4.44016 37.3032 4.61035L37.2935 4.6123L37.2847 4.61523L37.2446 4.62695C37.184 4.6446 37.1092 4.66445 37.0249 4.7041L36.938 4.75098L36.9351 4.75293C36.6398 4.93357 36.5048 5.19653 36.4351 5.35059L36.4302 5.3623L36.4253 5.375L36.3979 5.45312L36.355 5.61426L36.2339 6.16211V6.16309C36.1816 6.41467 36.1338 6.60476 36.0649 6.88184L36.0132 7.09277L36.0103 7.10156L35.9155 7.42188C35.8954 7.48143 35.8484 7.52856 35.7886 7.55078L35.7261 7.56445H35.6763C35.6079 7.55673 35.5492 7.51738 35.5161 7.46289L35.4897 7.39062C35.4358 7.06137 35.2742 6.22319 35.103 5.54199L35.1001 5.53223L35.0972 5.52148L35.0854 5.4834C35.0676 5.42321 35.0469 5.34831 35.0063 5.26367L34.9585 5.17578L34.9575 5.17285L34.8853 5.07031C34.7098 4.84741 34.4895 4.73847 34.355 4.67871L34.3315 4.66895L34.2534 4.64258L34.0913 4.60059L33.5386 4.48047H33.5376L33.3169 4.43652H33.3159C33.1054 4.39524 32.8947 4.35319 32.5854 4.27832L32.5767 4.27637H32.5757L32.4995 4.25488L32.4771 4.24805H32.4761L32.4282 4.23438L32.4263 4.2334L32.3657 4.21777L32.3462 4.21289L32.3267 4.20898L32.2534 4.18359C32.2096 4.15861 32.1773 4.11958 32.1606 4.0752L32.1479 4.00586V3.99707C32.1473 3.92562 32.1872 3.85608 32.2534 3.81836L32.3276 3.79199C32.4573 3.77116 32.6588 3.73568 32.896 3.69043L33.6792 3.53027C33.8395 3.49478 34.0011 3.45661 34.1558 3.41797L34.1655 3.41602L34.1753 3.41309L34.2153 3.40137L34.2144 3.40039C34.2749 3.38276 34.3499 3.3638 34.4341 3.32422L34.522 3.27734L34.5249 3.27539C34.82 3.09475 34.9542 2.83176 35.0239 2.67773L35.0298 2.66602L35.0347 2.65332L35.061 2.5752L35.104 2.41406L35.2251 1.86621V1.86523L35.27 1.64551L35.2759 1.61621C35.2957 1.51696 35.3161 1.41665 35.3403 1.30469L35.4292 0.922852L35.4302 0.916992L35.4653 0.796875V0.795898L35.4741 0.765625L35.4956 0.696289V0.69043L35.4966 0.686523L35.5005 0.668945C35.5182 0.57654 35.6012 0.503563 35.7026 0.5L35.7476 0.50293Z" fill="#279AF2" stroke="#279AF2"/>
<defs>
<linearGradient id="paint0_linear_2216_29961" x1="-21.9613" y1="20.1367" x2="43.0465" y2="9.65662" gradientUnits="userSpaceOnUse">
<stop stop-color="#39434A"/>
<stop offset="1" stop-color="#279AF2"/>
</linearGradient>
<linearGradient id="paint1_linear_2216_29961" x1="-21.9613" y1="20.1367" x2="43.0465" y2="9.65662" gradientUnits="userSpaceOnUse">
<stop stop-color="#39434A"/>
<stop offset="1" stop-color="#279AF2"/>
</linearGradient>
<linearGradient id="paint2_linear_2216_29961" x1="-21.9613" y1="20.1367" x2="43.0465" y2="9.65662" gradientUnits="userSpaceOnUse">
<stop stop-color="#39434A"/>
<stop offset="1" stop-color="#279AF2"/>
</linearGradient>
<linearGradient id="paint3_linear_2216_29961" x1="-21.9613" y1="20.1367" x2="43.0465" y2="9.65662" gradientUnits="userSpaceOnUse">
<stop stop-color="#39434A"/>
<stop offset="1" stop-color="#279AF2"/>
</linearGradient>
</defs>
</svg>
