<svg viewBox="0 0 86 42" fill="none" xmlns="http://www.w3.org/2000/svg">
<rect x="0.5" y="0.5" width="85" height="41" rx="20.5" fill="white" stroke="#65BBFC"/>
<path d="M52.3171 17.48H55.5371V18.67H52.3171V17.48ZM54.8931 15.366H56.3631V21.918H54.8931V15.366ZM48.0331 22.52H56.3631V25.754H49.5031V27.546H48.0611V24.676H54.9211V23.668H48.0331V22.52ZM48.0611 26.846H56.7971V27.994H48.0611V26.846ZM48.8311 15.772H50.0351V16.836C50.0351 17.6293 49.8951 18.3713 49.6151 19.062C49.3351 19.7433 48.9291 20.336 48.3971 20.84C47.8744 21.344 47.2351 21.722 46.4791 21.974L45.7231 20.826C46.3858 20.602 46.9504 20.2893 47.4171 19.888C47.8838 19.4867 48.2338 19.0247 48.4671 18.502C48.7098 17.9793 48.8311 17.424 48.8311 16.836V15.772ZM49.1111 15.772H50.3011V16.836C50.3011 17.2373 50.3664 17.6293 50.4971 18.012C50.6278 18.3853 50.8238 18.74 51.0851 19.076C51.3464 19.4027 51.6638 19.6967 52.0371 19.958C52.4104 20.21 52.8351 20.4107 53.3111 20.56L52.5551 21.708C51.8271 21.456 51.2064 21.092 50.6931 20.616C50.1798 20.1307 49.7878 19.566 49.5171 18.922C49.2464 18.2687 49.1111 17.5733 49.1111 16.836V15.772ZM65.518 18.572H68.206V19.776H65.518V18.572ZM67.772 15.366H69.242V22.982H67.772V15.366ZM64.986 23.318C65.882 23.318 66.6473 23.416 67.282 23.612C67.926 23.7987 68.4207 24.074 68.766 24.438C69.1207 24.7927 69.298 25.2267 69.298 25.74C69.298 26.5053 68.9107 27.098 68.136 27.518C67.3707 27.938 66.3207 28.148 64.986 28.148C63.6513 28.148 62.5967 27.938 61.822 27.518C61.0473 27.098 60.66 26.5053 60.66 25.74C60.66 25.2267 60.8327 24.7927 61.178 24.438C61.5327 24.074 62.032 23.7987 62.676 23.612C63.3293 23.416 64.0993 23.318 64.986 23.318ZM64.986 24.438C64.3793 24.438 63.8613 24.4893 63.432 24.592C63.012 24.6947 62.69 24.8393 62.466 25.026C62.242 25.2127 62.13 25.4507 62.13 25.74C62.13 26.0107 62.242 26.244 62.466 26.44C62.69 26.636 63.012 26.7853 63.432 26.888C63.8613 26.9813 64.3793 27.028 64.986 27.028C65.5927 27.028 66.106 26.9813 66.526 26.888C66.946 26.7853 67.268 26.636 67.492 26.44C67.7253 26.244 67.842 26.0107 67.842 25.74C67.842 25.4507 67.7253 25.2127 67.492 25.026C67.268 24.8393 66.946 24.6947 66.526 24.592C66.106 24.4893 65.5927 24.438 64.986 24.438ZM61.766 16.654H62.97V17.578C62.97 18.3807 62.8253 19.1367 62.536 19.846C62.256 20.546 61.85 21.1667 61.318 21.708C60.786 22.24 60.142 22.6413 59.386 22.912L58.644 21.75C59.1387 21.5727 59.5773 21.3393 59.96 21.05C60.352 20.7607 60.6833 20.4293 60.954 20.056C61.2247 19.6827 61.4253 19.286 61.556 18.866C61.696 18.446 61.766 18.0167 61.766 17.578V16.654ZM62.06 16.654H63.25V17.578C63.25 18.1007 63.3667 18.614 63.6 19.118C63.8333 19.622 64.174 20.0747 64.622 20.476C65.07 20.868 65.616 21.1807 66.26 21.414L65.532 22.562C64.7947 22.3007 64.1647 21.9227 63.642 21.428C63.1287 20.924 62.7367 20.3407 62.466 19.678C62.1953 19.006 62.06 18.306 62.06 17.578V16.654ZM59.064 16.22H65.91V17.41H59.064V16.22Z" fill="#5A6971"/>
<path fill-rule="evenodd" clip-rule="evenodd" d="M25.563 12.2H24.437L23.792 14.778L23.145 14.978C22.768 15.0942 22.4027 15.2455 22.054 15.43L21.455 15.747L19.175 14.379L18.379 15.176L19.747 17.456L19.43 18.054C19.2452 18.4027 19.0935 18.7679 18.977 19.145L18.778 19.792L16.2 20.437V21.563L18.778 22.208L18.978 22.855C19.0933 23.2337 19.244 23.5973 19.43 23.946L19.747 24.545L18.379 26.825L19.176 27.621L21.456 26.253L22.054 26.57C22.4027 26.7553 22.7663 26.9063 23.145 27.023L23.792 27.222L24.437 29.8H25.563L26.208 27.222L26.855 27.022C27.232 26.9058 27.5973 26.7545 27.946 26.57L28.545 26.253L30.825 27.621L31.621 26.824L30.253 24.544L30.57 23.946C30.7553 23.5973 30.9063 23.2337 31.023 22.855L31.222 22.208L33.8 21.563V20.437L31.222 19.792L31.022 19.145C30.9058 18.768 30.7545 18.4027 30.57 18.054L30.253 17.455L31.621 15.175L30.824 14.379L28.544 15.747L27.946 15.43C27.5973 15.2452 27.2321 15.0935 26.855 14.977L26.208 14.778L25.563 12.2ZM28.508 14.37L30.341 13.27C30.5321 13.1554 30.7561 13.1079 30.9773 13.135C31.1985 13.1622 31.4043 13.2625 31.562 13.42L32.58 14.438C32.7375 14.5957 32.8378 14.8015 32.865 15.0227C32.8921 15.2439 32.8446 15.4679 32.73 15.659L31.63 17.492C31.85 17.9053 32.03 18.3387 32.17 18.792L34.243 19.311C34.4592 19.3652 34.6512 19.49 34.7883 19.6658C34.9255 19.8415 35 20.0581 35 20.281V21.719C35 21.9419 34.9255 22.1585 34.7883 22.3342C34.6512 22.51 34.4592 22.6348 34.243 22.689L32.17 23.208C32.03 23.6613 31.85 24.0947 31.63 24.508L32.73 26.341C32.8446 26.5321 32.8921 26.7561 32.865 26.9773C32.8378 27.1985 32.7375 27.4043 32.58 27.562L31.562 28.58C31.4043 28.7375 31.1985 28.8378 30.9773 28.865C30.7561 28.8921 30.5321 28.8446 30.341 28.73L28.508 27.63C28.0947 27.85 27.6613 28.03 27.208 28.17L26.689 30.243C26.6348 30.4592 26.51 30.6512 26.3342 30.7883C26.1585 30.9255 25.9419 31 25.719 31H24.281C24.0581 31 23.8415 30.9255 23.6658 30.7883C23.49 30.6512 23.3652 30.4592 23.311 30.243L22.792 28.17C22.3427 28.0312 21.9074 27.8504 21.492 27.63L19.659 28.73C19.4679 28.8446 19.2439 28.8921 19.0227 28.865C18.8015 28.8378 18.5957 28.7375 18.438 28.58L17.42 27.562C17.2625 27.4043 17.1622 27.1985 17.135 26.9773C17.1079 26.7561 17.1554 26.5321 17.27 26.341L18.37 24.508C18.1496 24.0926 17.9688 23.6573 17.83 23.208L15.757 22.689C15.5409 22.6349 15.3491 22.5101 15.212 22.3346C15.0748 22.1591 15.0002 21.9428 15 21.72V20.282C15 20.0591 15.0745 19.8425 15.2117 19.6668C15.3488 19.491 15.5408 19.3662 15.757 19.312L17.83 18.793C17.97 18.3397 18.15 17.9063 18.37 17.493L17.27 15.66C17.1554 15.4689 17.1079 15.2449 17.135 15.0237C17.1622 14.8025 17.2625 14.5967 17.42 14.439L18.438 13.42C18.5957 13.2625 18.8015 13.1622 19.0227 13.135C19.2439 13.1079 19.4679 13.1554 19.659 13.27L21.492 14.37C21.9053 14.15 22.3387 13.97 22.792 13.83L23.311 11.757C23.3651 11.5409 23.4899 11.3491 23.6654 11.212C23.8409 11.0748 24.0572 11.0002 24.28 11H25.718C25.9409 11 26.1575 11.0745 26.3332 11.2117C26.509 11.3488 26.6338 11.5408 26.688 11.757L27.207 13.83C27.6603 13.97 28.0937 14.15 28.507 14.37H28.508ZM25 23.8C25.7426 23.8 26.4548 23.505 26.9799 22.9799C27.505 22.4548 27.8 21.7426 27.8 21C27.8 20.2574 27.505 19.5452 26.9799 19.0201C26.4548 18.495 25.7426 18.2 25 18.2C24.2574 18.2 23.5452 18.495 23.0201 19.0201C22.495 19.5452 22.2 20.2574 22.2 21C22.2 21.7426 22.495 22.4548 23.0201 22.9799C23.5452 23.505 24.2574 23.8 25 23.8ZM25 25C23.9391 25 22.9217 24.5786 22.1716 23.8284C21.4214 23.0783 21 22.0609 21 21C21 19.9391 21.4214 18.9217 22.1716 18.1716C22.9217 17.4214 23.9391 17 25 17C26.0609 17 27.0783 17.4214 27.8284 18.1716C28.5786 18.9217 29 19.9391 29 21C29 22.0609 28.5786 23.0783 27.8284 23.8284C27.0783 24.5786 26.0609 25 25 25Z" fill="#5A6971"/>
</svg>
