<svg viewBox="0 0 146 42" fill="none" xmlns="http://www.w3.org/2000/svg">
<rect x="0.5" y="0.5" width="145" height="41" rx="20.5" fill="white" stroke="#65BBFC"/>
<path d="M37.9956 25.376H49.5876V26.594H37.9956V25.376ZM38.9476 16.556H48.5656V17.746H38.9476V16.556ZM39.0036 21.918H48.5376V23.094H39.0036V21.918ZM40.8376 17.662H42.2936V22.03H40.8376V17.662ZM45.2196 17.662H46.6756V22.03H45.2196V17.662ZM50.8745 25.446H62.4665V26.65H50.8745V25.446ZM55.9145 22.842H57.3845V25.936H55.9145V22.842ZM52.2465 16.248H61.0945V20.308H53.7165V22.674H52.2745V19.146H59.6385V17.438H52.2465V16.248ZM52.2745 22.086H61.3885V23.262H52.2745V22.086ZM72.8534 15.366H74.3234V21.96H72.8534V15.366ZM65.8394 22.534H74.3234V25.768H67.3234V27.518H65.8674V24.704H72.8674V23.668H65.8394V22.534ZM65.8674 26.888H74.7434V28.036H65.8674V26.888ZM64.3134 16.178H71.1874V17.326H64.3134V16.178ZM64.1314 21.61L63.9774 20.434C64.7334 20.4247 65.5547 20.4153 66.4414 20.406C67.328 20.3873 68.224 20.3547 69.1294 20.308C70.044 20.252 70.9167 20.1727 71.7474 20.07L71.8174 21.134C70.9774 21.2647 70.1047 21.3673 69.1994 21.442C68.294 21.5073 67.4074 21.554 66.5394 21.582C65.6807 21.6007 64.878 21.61 64.1314 21.61ZM65.4614 16.71H66.8754V20.98H65.4614V16.71ZM68.6254 16.71H70.0394V20.98H68.6254V16.71ZM84.7888 15.772H86.0768V16.444C86.0768 16.9293 85.9928 17.396 85.8248 17.844C85.6568 18.2827 85.4141 18.6887 85.0968 19.062C84.7888 19.4353 84.4155 19.7713 83.9768 20.07C83.5475 20.3687 83.0715 20.6207 82.5488 20.826C82.0261 21.022 81.4661 21.1667 80.8688 21.26L80.2948 20.084C80.8175 20.0093 81.3028 19.8927 81.7508 19.734C82.2081 19.566 82.6235 19.3653 82.9968 19.132C83.3701 18.8893 83.6875 18.6233 83.9488 18.334C84.2195 18.0447 84.4248 17.7413 84.5648 17.424C84.7141 17.1067 84.7888 16.78 84.7888 16.444V15.772ZM85.0688 15.772H86.3428V16.444C86.3428 16.7707 86.4128 17.0927 86.5528 17.41C86.7021 17.7273 86.9121 18.0307 87.1828 18.32C87.4535 18.6093 87.7755 18.8753 88.1488 19.118C88.5221 19.3513 88.9328 19.552 89.3808 19.72C89.8381 19.888 90.3235 20.0093 90.8368 20.084L90.2628 21.26C89.6748 21.1667 89.1195 21.0173 88.5968 20.812C88.0741 20.6067 87.5935 20.3547 87.1548 20.056C86.7255 19.7573 86.3521 19.4213 86.0348 19.048C85.7268 18.6747 85.4888 18.2687 85.3208 17.83C85.1528 17.3913 85.0688 16.9293 85.0688 16.444V15.772ZM84.8028 23.36H86.2588V28.162H84.8028V23.36ZM79.7768 22.45H91.3408V23.654H79.7768V22.45ZM99.5297 18.572H102.218V19.776H99.5297V18.572ZM101.784 15.366H103.254V22.982H101.784V15.366ZM98.9977 23.318C99.8937 23.318 100.659 23.416 101.294 23.612C101.938 23.7987 102.432 24.074 102.778 24.438C103.132 24.7927 103.31 25.2267 103.31 25.74C103.31 26.5053 102.922 27.098 102.148 27.518C101.382 27.938 100.332 28.148 98.9977 28.148C97.6631 28.148 96.6084 27.938 95.8337 27.518C95.0591 27.098 94.6717 26.5053 94.6717 25.74C94.6717 25.2267 94.8444 24.7927 95.1897 24.438C95.5444 24.074 96.0437 23.7987 96.6877 23.612C97.3411 23.416 98.1111 23.318 98.9977 23.318ZM98.9977 24.438C98.3911 24.438 97.8731 24.4893 97.4437 24.592C97.0237 24.6947 96.7017 24.8393 96.4777 25.026C96.2537 25.2127 96.1417 25.4507 96.1417 25.74C96.1417 26.0107 96.2537 26.244 96.4777 26.44C96.7017 26.636 97.0237 26.7853 97.4437 26.888C97.8731 26.9813 98.3911 27.028 98.9977 27.028C99.6044 27.028 100.118 26.9813 100.538 26.888C100.958 26.7853 101.28 26.636 101.504 26.44C101.737 26.244 101.854 26.0107 101.854 25.74C101.854 25.4507 101.737 25.2127 101.504 25.026C101.28 24.8393 100.958 24.6947 100.538 24.592C100.118 24.4893 99.6044 24.438 98.9977 24.438ZM95.7777 16.654H96.9817V17.578C96.9817 18.3807 96.8371 19.1367 96.5477 19.846C96.2677 20.546 95.8617 21.1667 95.3297 21.708C94.7977 22.24 94.1537 22.6413 93.3977 22.912L92.6557 21.75C93.1504 21.5727 93.5891 21.3393 93.9717 21.05C94.3637 20.7607 94.6951 20.4293 94.9657 20.056C95.2364 19.6827 95.4371 19.286 95.5677 18.866C95.7077 18.446 95.7777 18.0167 95.7777 17.578V16.654ZM96.0717 16.654H97.2617V17.578C97.2617 18.1007 97.3784 18.614 97.6117 19.118C97.8451 19.622 98.1857 20.0747 98.6337 20.476C99.0817 20.868 99.6277 21.1807 100.272 21.414L99.5437 22.562C98.8064 22.3007 98.1764 21.9227 97.6537 21.428C97.1404 20.924 96.7484 20.3407 96.4777 19.678C96.2071 19.006 96.0717 18.306 96.0717 17.578V16.654ZM93.0757 16.22H99.9217V17.41H93.0757V16.22ZM113.991 15.366H115.461V28.162H113.991V15.366ZM115.125 20.504H117.435V21.722H115.125V20.504ZM105.465 17.34H112.969V18.516H105.465V17.34ZM109.273 19.426C109.879 19.426 110.421 19.5567 110.897 19.818C111.373 20.07 111.746 20.42 112.017 20.868C112.297 21.316 112.437 21.8293 112.437 22.408C112.437 22.996 112.297 23.514 112.017 23.962C111.746 24.41 111.373 24.7647 110.897 25.026C110.421 25.278 109.875 25.404 109.259 25.404C108.652 25.404 108.111 25.278 107.635 25.026C107.159 24.7647 106.781 24.41 106.501 23.962C106.23 23.514 106.095 22.996 106.095 22.408C106.095 21.8293 106.23 21.316 106.501 20.868C106.781 20.42 107.159 20.07 107.635 19.818C108.111 19.5567 108.657 19.426 109.273 19.426ZM109.259 20.63C108.923 20.63 108.619 20.7047 108.349 20.854C108.078 21.0033 107.863 21.2133 107.705 21.484C107.555 21.7453 107.481 22.0533 107.481 22.408C107.481 22.772 107.555 23.0893 107.705 23.36C107.863 23.6213 108.078 23.8267 108.349 23.976C108.619 24.1253 108.923 24.2 109.259 24.2C109.604 24.2 109.907 24.1253 110.169 23.976C110.439 23.8267 110.649 23.6213 110.799 23.36C110.957 23.0893 111.037 22.772 111.037 22.408C111.037 22.0533 110.957 21.7453 110.799 21.484C110.649 21.2133 110.439 21.0033 110.169 20.854C109.907 20.7047 109.604 20.63 109.259 20.63ZM108.517 15.534H109.987V17.83H108.517V15.534ZM127.514 15.352H128.984V28.148H127.514V15.352ZM123.748 16.71H125.204C125.204 17.662 125.101 18.572 124.896 19.44C124.69 20.308 124.354 21.134 123.888 21.918C123.43 22.6927 122.824 23.4113 122.068 24.074C121.321 24.7367 120.397 25.334 119.296 25.866L118.512 24.704C119.753 24.1067 120.756 23.4253 121.522 22.66C122.287 21.8947 122.847 21.0407 123.202 20.098C123.566 19.146 123.748 18.1007 123.748 16.962V16.71ZM119.142 16.71H124.406V17.886H119.142V16.71Z" fill="#5A6971"/>
<g clip-path="url(#clip0_21_575)">
<path d="M25.7025 19.0603L22.912 16.2986L23.8312 15.3781C24.0829 15.126 24.3922 15 24.759 15C25.1254 15 25.4344 15.126 25.6861 15.3781L26.6054 16.2986C26.8571 16.5507 26.9884 16.8549 26.9993 17.2113C27.0103 17.5672 26.8899 17.8712 26.6382 18.1233L25.7025 19.0603ZM15.6566 27C15.4706 27 15.3147 26.9369 15.1891 26.8106C15.063 26.6848 15 26.5288 15 26.3425V24.4849C15 24.3973 15.0164 24.3124 15.0492 24.2305C15.0821 24.1481 15.1313 24.074 15.197 24.0082L21.9599 17.2356L24.7505 20.0301L17.9875 26.8027C17.9219 26.8685 17.8481 26.9178 17.7662 26.9507C17.684 26.9836 17.599 27 17.5115 27H15.6566Z" fill="#5A6971"/>
</g>
<defs>
<clipPath id="clip0_21_575">
<rect width="12" height="12" fill="white" transform="translate(15 15)"/>
</clipPath>
</defs>
</svg>
