<svg viewBox="0 0 88 42" fill="none" xmlns="http://www.w3.org/2000/svg">
<rect x="0.5" y="0.5" width="87" height="41" rx="20.5" fill="white" stroke="#65BBFC"/>
<path d="M20.7539 24.0381C18.8624 24.9165 17.0064 26.685 16.097 27.6956C16.0272 27.7732 15.8968 27.7079 15.9206 27.6063C16.1832 26.4865 16.7097 24.6096 17.4727 23.4286C18.457 21.9048 19.5984 20.5081 21.4102 19.1619C23.0258 17.9614 26.7492 16.6131 28.5334 16.2813C28.5812 16.2724 28.6146 16.2312 28.6146 16.1826V12.2322C28.6146 12.1445 28.7196 12.0993 28.7834 12.1596L36.7514 19.6951C36.7945 19.7359 36.7928 19.8051 36.7477 19.8437L28.4659 26.9442C28.401 26.9998 28.3008 26.9537 28.3008 26.8683V22.919C28.3008 22.8638 28.2575 22.819 28.2022 22.8193C26.5122 22.8288 22.8129 23.0819 20.7539 24.0381Z" stroke="#5A6971" stroke-width="1.5"/>
<path d="M53.4911 22.388C54.4058 22.388 55.1991 22.486 55.8711 22.682C56.5431 22.8687 57.0611 23.1393 57.4251 23.494C57.7984 23.8487 57.9851 24.2733 57.9851 24.768C57.9851 25.2627 57.7984 25.6873 57.4251 26.042C57.0611 26.3967 56.5431 26.6673 55.8711 26.854C55.1991 27.0407 54.4058 27.134 53.4911 27.134C52.5764 27.134 51.7831 27.0407 51.1111 26.854C50.4391 26.6673 49.9164 26.3967 49.5431 26.042C49.1791 25.6873 48.9971 25.2627 48.9971 24.768C48.9971 24.2733 49.1791 23.8487 49.5431 23.494C49.9164 23.1393 50.4391 22.8687 51.1111 22.682C51.7831 22.486 52.5764 22.388 53.4911 22.388ZM53.4911 23.508C52.8658 23.508 52.3244 23.5547 51.8671 23.648C51.4191 23.7413 51.0738 23.886 50.8311 24.082C50.5884 24.2687 50.4671 24.4973 50.4671 24.768C50.4671 25.0293 50.5884 25.2533 50.8311 25.44C51.0738 25.6267 51.4191 25.7713 51.8671 25.874C52.3244 25.9767 52.8658 26.028 53.4911 26.028C54.1258 26.028 54.6671 25.9767 55.1151 25.874C55.5631 25.7713 55.9084 25.6267 56.1511 25.44C56.4031 25.2533 56.5291 25.0293 56.5291 24.768C56.5291 24.4973 56.4031 24.2687 56.1511 24.082C55.9084 23.886 55.5631 23.7413 55.1151 23.648C54.6671 23.5547 54.1258 23.508 53.4911 23.508ZM49.1091 14.968H57.2851V16.144H49.1091V14.968ZM47.7791 20.204H59.3151V21.38H47.7791V20.204ZM52.3151 17.852H53.7711V20.526H52.3151V17.852ZM56.4311 14.968H57.8871V16.046C57.8871 16.5593 57.8731 17.0913 57.8451 17.642C57.8171 18.1833 57.7144 18.7853 57.5371 19.448L56.0951 19.294C56.2631 18.6313 56.3611 18.048 56.3891 17.544C56.4171 17.04 56.4311 16.5407 56.4311 16.046V14.968ZM63.458 22.346H64.956V27.148H63.458V22.346ZM67.868 22.346H69.352V27.148H67.868V22.346ZM60.644 21.562H72.236V22.766H60.644V21.562ZM66.412 14.842C67.308 14.842 68.0967 14.9587 68.778 15.192C69.4593 15.416 69.9913 15.738 70.374 16.158C70.7567 16.578 70.948 17.0773 70.948 17.656C70.948 18.2253 70.7567 18.7247 70.374 19.154C69.9913 19.574 69.4593 19.9007 68.778 20.134C68.0967 20.358 67.308 20.47 66.412 20.47C65.516 20.47 64.7227 20.358 64.032 20.134C63.3507 19.9007 62.8187 19.574 62.436 19.154C62.0533 18.7247 61.862 18.2253 61.862 17.656C61.862 17.0773 62.0533 16.578 62.436 16.158C62.8187 15.738 63.3507 15.416 64.032 15.192C64.7227 14.9587 65.516 14.842 66.412 14.842ZM66.412 16.004C65.796 16.004 65.2593 16.074 64.802 16.214C64.354 16.3447 64.004 16.5313 63.752 16.774C63.5 17.0167 63.374 17.3107 63.374 17.656C63.374 18.0013 63.5 18.3 63.752 18.552C64.004 18.7947 64.354 18.9813 64.802 19.112C65.2593 19.2333 65.796 19.294 66.412 19.294C67.0187 19.294 67.546 19.2333 67.994 19.112C68.4513 18.9813 68.806 18.7947 69.058 18.552C69.31 18.3 69.436 18.0013 69.436 17.656C69.436 17.3107 69.31 17.0167 69.058 16.774C68.806 16.5313 68.4513 16.3447 67.994 16.214C67.546 16.074 67.0187 16.004 66.412 16.004Z" fill="#5A6971"/>
</svg>
