<svg width="28" height="24" viewBox="0 0 28 24" fill="none" xmlns="http://www.w3.org/2000/svg">
<path d="M2 4.85714V4.85714C2 3.27919 3.27919 2 4.85714 2H9.06888C9.77872 2 10.1336 2 10.4689 2.07795C10.7662 2.14708 11.0512 2.26116 11.314 2.41627C11.6104 2.59118 11.8673 2.83609 12.3811 3.32591L13.9872 4.85714M2 4.85714C2 4.85714 3.6336 4.85714 5.85083 4.85714M2 4.85714C2 4.85714 2 6.9846 2 8.85714M13.9872 4.85714C11.5195 4.85714 8.32252 4.85714 5.85083 4.85714M13.9872 4.85714H21.4791M5.85083 4.85714C4.49733 4.85714 2.49947 5.42857 2 8.85714M2 8.85714C2 9.25751 2 9.64622 2 10C2 12.0595 2 14.6265 2 16.8571M2 16.8571C2 17.0767 2 17.2931 2 17.5053C2 18.8983 2 19.5948 2.22692 20.1446C2.53147 20.8824 3.11755 21.4685 3.85544 21.7731C4.40523 22 5.10188 22 6.49519 22V22M2 16.8571C2 18.381 2.89904 21.5429 6.49519 22M6.49519 22H21.9786M25.9743 16.2857V18.0043C25.9743 18.9303 25.9743 19.3932 25.873 19.7732C25.5961 20.8111 24.7854 21.6218 23.7475 21.8986C23.3676 22 22.9046 22 21.9786 22V22M25.9743 16.2857C26.1408 18 25.5747 21.5429 21.9786 22M25.9743 16.2857V9.42857M21.4791 4.85714V4.85714C22.8724 4.85714 23.5691 4.85714 24.1189 5.08406C24.8568 5.38861 25.4428 5.9747 25.7474 6.71259C25.9743 7.26237 25.9743 7.95902 25.9743 9.35233V9.42857M21.4791 4.85714C22.9775 4.85714 25.9743 5.77143 25.9743 9.42857" stroke="#7B8D99" stroke-width="3"/>
<path d="M15 10L21 16" stroke="#7B8D99" stroke-width="2" stroke-linecap="round"/>
<path d="M21 10L15 16" stroke="#7B8D99" stroke-width="2" stroke-linecap="round"/>
</svg>
