<svg viewBox="0 0 49 39" fill="none" xmlns="http://www.w3.org/2000/svg">
<path d="M22.2117 5.41956L23.6223 4.00174L22.2117 5.41957C23.1486 6.35172 24.4165 6.875 25.7381 6.875H44.1C45.7001 6.875 47 8.18295 47 9.75V34.125C47 35.6921 45.7001 37 44.1 37H4.9C3.30015 37 2.00039 35.6924 2 34.1257C2 34.1255 2 34.1252 2 34.125L2.0245 4.87668V4.875C2.0245 3.29491 3.31297 2 4.9 2H18.3619C18.6262 2 18.8798 2.10466 19.0671 2.29109L22.2117 5.41956ZM41.1 36.125C43.8614 36.125 46.1 33.8864 46.1 31.125V12.75C46.1 9.98857 43.8614 7.75 41.1 7.75H7.9C5.13858 7.75 2.9 9.98858 2.9 12.75V31.125C2.9 33.8864 5.13858 36.125 7.9 36.125H41.1Z" fill="currentColor" stroke="currentColor" stroke-width="4"/>
</svg>
