<svg width="12" height="12" viewBox="0 0 12 12" fill="none" xmlns="http://www.w3.org/2000/svg">
<path d="M2.875 12C2.53125 12 2.23708 11.8804 1.9925 11.6413C1.7475 11.4017 1.625 11.1139 1.625 10.7778V2.83333C1.44792 2.83333 1.29938 2.77487 1.17938 2.65794C1.05979 2.54061 1 2.39537 1 2.22222C1 2.04907 1.05979 1.90383 1.17938 1.7865C1.29938 1.66957 1.44792 1.61111 1.625 1.61111H4.125C4.125 1.43796 4.185 1.29272 4.305 1.17539C4.42458 1.05846 4.57292 1 4.75 1H7.25C7.42708 1 7.57563 1.05846 7.69563 1.17539C7.81521 1.29272 7.875 1.43796 7.875 1.61111H10.375C10.5521 1.61111 10.7004 1.66957 10.82 1.7865C10.94 1.90383 11 2.04907 11 2.22222C11 2.39537 10.94 2.54061 10.82 2.65794C10.7004 2.77487 10.5521 2.83333 10.375 2.83333V10.7778C10.375 11.1139 10.2527 11.4017 10.0081 11.6413C9.76313 11.8804 9.46875 12 9.125 12H2.875ZM4.125 8.94444C4.125 9.11759 4.185 9.26263 4.305 9.37956C4.42458 9.49689 4.57292 9.55556 4.75 9.55556C4.92708 9.55556 5.07563 9.49689 5.19563 9.37956C5.31521 9.26263 5.375 9.11759 5.375 8.94444V4.66667C5.375 4.49352 5.31521 4.34828 5.19563 4.23094C5.07563 4.11402 4.92708 4.05556 4.75 4.05556C4.57292 4.05556 4.42458 4.11402 4.305 4.23094C4.185 4.34828 4.125 4.49352 4.125 4.66667V8.94444ZM6.625 8.94444C6.625 9.11759 6.685 9.26263 6.805 9.37956C6.92458 9.49689 7.07292 9.55556 7.25 9.55556C7.42708 9.55556 7.57563 9.49689 7.69563 9.37956C7.81521 9.26263 7.875 9.11759 7.875 8.94444V4.66667C7.875 4.49352 7.81521 4.34828 7.69563 4.23094C7.57563 4.11402 7.42708 4.05556 7.25 4.05556C7.07292 4.05556 6.92458 4.11402 6.805 4.23094C6.685 4.34828 6.625 4.49352 6.625 4.66667V8.94444Z" fill="#5A6971"/>
</svg>
